<svg xmlns="http://www.w3.org/2000/svg" width="20" height="15" viewBox="0 0 20 15">
  <path fill="#231F20" fill-rule="evenodd" d="M19.5,7.00060457 L1.831,7.00060457 L8.829,0.876604566 C9.037,0.694604566 9.058,0.378604566 8.876,0.171604566 C8.694,-0.0373954342 8.379,-0.0583954342 8.171,0.124604566 L0.171,7.12460457 C0.166,7.12760457 0.165,7.13360457 0.16,7.13760457 C0.152,7.14560457 0.144,7.15360457 0.136,7.16160457 C0.133,7.16560457 0.127,7.16760457 0.124,7.17160457 C0.109,7.18860457 0.104,7.20960457 0.092,7.22760457 C0.076,7.25060457 0.058,7.27060457 0.047,7.29460457 C0.042,7.30560457 0.039,7.31560457 0.035,7.32560457 C0.025,7.35260457 0.022,7.37860457 0.017,7.40660457 C0.012,7.43260457 0.004,7.45760457 0.003,7.48460457 C0.003,7.49060457 0,7.49460457 0,7.50060457 C0,7.50660457 0.003,7.51060457 0.003,7.51660457 C0.004,7.54360457 0.012,7.56860457 0.017,7.59460457 C0.022,7.62260457 0.025,7.64860457 0.035,7.67560457 C0.039,7.68560457 0.042,7.69560457 0.047,7.70660457 C0.058,7.73060457 0.076,7.75060457 0.092,7.77360457 C0.104,7.79160457 0.109,7.81260457 0.124,7.82960457 C0.127,7.83360457 0.132,7.83460457 0.136,7.83860457 C0.144,7.84760457 0.152,7.85560457 0.16,7.86360457 C0.165,7.86760457 0.166,7.87360457 0.171,7.87660457 L8.171,14.8766046 C8.266,14.9596046 8.383,15.0006046 8.5,15.0006046 C8.639,15.0006046 8.777,14.9426046 8.876,14.8296046 C9.058,14.6226046 9.037,14.3066046 8.829,14.1246046 L1.831,8.00060457 L19.5,8.00060457 C19.776,8.00060457 20,7.77660457 20,7.50060457 C20,7.22460457 19.776,7.00060457 19.5,7.00060457" transform="matrix(-1 0 0 1 20 0)"/>
</svg>
