<svg xmlns="http://www.w3.org/2000/svg" width="57" height="68" viewBox="0 0 57 68">
  <g fill="none" fill-rule="evenodd" stroke="#FF0000" stroke-width="2" transform="translate(1 1)" stroke-linecap="round" stroke-linejoin="round">
    <path d="M14.5178,42 L14.5178,11.246 C14.5178,5.034 19.5518,0 25.7638,0 L43.2738,0 C49.4838,0 54.5178,5.034 54.5178,11.246 L54.5178,56"/>
    <polyline points="48.518 56 54.518 56 54.518 66 14.518 66 14.518 56 38.518 56"/>
    <path d="M14.5178 56L1.1658 37.642C-.4082 35.476-.3862 32.54 1.2198 30.398 3.0938 27.9 6.5538 27.222 9.2318 28.828L14.5178 32M22.5178 28L46.5178 28M24.5178 0L24.5178 28M34.5178 0L34.5178 28M44.5178 0L44.5178 28"/>
  </g>
</svg>
