<svg xmlns="http://www.w3.org/2000/svg" width="48" height="68" viewBox="0 0 48 68">
  <g fill="none" fill-rule="evenodd" stroke="#FF0000" stroke-width="2" transform="translate(1 1)" stroke-linecap="round" stroke-linejoin="round">
    <path d="M42.959,16 C40.055,6.728 31.399,0 21.169,0 L13.423,0 C6.009,0 0.001,6.01 0.001,13.422 L0.001,52.578 C0.001,59.99 6.009,66 13.423,66 L21.169,66 C31.399,66 40.055,59.272 42.959,50"/>
    <path d="M31.8398,16 C29.4758,12.39 25.4038,10 20.7658,10 L13.3418,10 C11.4958,10 9.9998,11.496 9.9998,13.342 L9.9998,52.658 C9.9998,54.504 11.4958,56 13.3418,56 L20.7658,56 C25.4038,56 29.4758,53.61 31.8398,50"/>
    <polygon points="30 50 46 50 46 16 30 16"/>
    <path d="M46 22L36 22M46 44L36 44"/>
  </g>
</svg>
