<svg xmlns="http://www.w3.org/2000/svg" width="61" height="68" viewBox="0 0 61 68">
  <g fill="none" fill-rule="evenodd" stroke="#FF0000" stroke-width="2" transform="translate(1 1)" stroke-linecap="round" stroke-linejoin="round">
    <path d="M49.4436,16 L9.4436,16 L9.4436,15.486 C9.4436,10.248 13.6916,6 18.9296,6 L39.9576,6 C45.1956,6 49.4436,10.248 49.4436,15.486 L49.4436,16 Z"/>
    <polyline points="9.444 40 9.444 16 49.444 16 49.444 40"/>
    <polygon points="25.444 6.001 33.444 6.001 33.444 .001 25.444 .001"/>
    <polygon points="49.444 28.001 55.444 28.001 55.444 20.001 49.444 20.001"/>
    <polygon points="3.444 28.001 9.444 28.001 9.444 20.001 3.444 20.001"/>
    <path d="M17.0646,48.3642 C21.4786,52.7782 22.0746,59.3382 18.3966,63.0182 C14.7186,66.6962 8.1586,66.1002 3.7426,61.6842 C-0.6714,57.2702 -1.2674,50.7102 2.4106,47.0322 C6.0906,43.3542 12.6506,43.9502 17.0646,48.3642 Z"/>
    <path d="M18.3966 63.0176L22.3946 59.0196C26.0706 55.3436 25.4766 48.7816 21.0606 44.3676 16.6466 39.9536 10.0866 39.3576 6.4086 43.0356L2.4106 47.0316M41.7404 48.3642C37.3264 52.7782 36.7304 59.3382 40.4084 63.0182 44.0864 66.6962 50.6464 66.1002 55.0604 61.6842 59.4764 57.2702 60.0724 50.7102 56.3944 47.0322 52.7144 43.3542 46.1544 43.9502 41.7404 48.3642z"/>
    <path d="M40.4084 63.0176L36.4104 59.0196C32.7344 55.3436 33.3284 48.7816 37.7424 44.3676 42.1584 39.9536 48.7184 39.3576 52.3964 43.0356L56.3944 47.0316M21.4436 60L37.4436 60"/>
    <path d="M9.4436,40 L18.0436,37.132 C20.2796,36.388 22.3116,35.132 23.9776,33.466 C26.9956,30.448 31.8916,30.448 34.9096,33.466 C36.5756,35.132 38.6076,36.388 40.8436,37.132 L49.4436,40"/>
  </g>
</svg>
