<svg xmlns="http://www.w3.org/2000/svg" width="88" height="80" viewBox="0 0 88 80">
  <path fill="#FF0000" fill-rule="evenodd" d="M81.7391799,66.0503806 L14.9570992,66.0503806 C14.3811037,66.0503806 13.9136291,66.5191347 13.9136291,67.0967067 C13.9136291,67.6742787 14.3811037,68.1430328 14.9570992,68.1430328 L81.7391799,68.1430328 L81.7391799,73.7220435 L6.26082007,73.7220435 L6.26082007,21.9289021 L15.1303152,21.9289021 L15.1303152,28.7300217 C15.1303152,29.3075937 15.5977897,29.7763478 16.1737852,29.7763478 L25.0432803,29.7763478 C25.6192757,29.7763478 26.0867503,29.3075937 26.0867503,28.7300217 L26.0867503,21.9289021 L29.5322883,21.9289021 C29.8453293,22.0335348 30.1750658,22.1046849 30.5214979,22.1046849 L57.4785021,22.1046849 C57.8270211,22.1046849 58.1546707,22.0335348 58.4697987,21.9289021 L61.9132497,21.9289021 L61.9132497,28.7300217 C61.9132497,29.3075937 62.3807243,29.7763478 62.9567197,29.7763478 L71.8262148,29.7763478 C72.4022103,29.7763478 72.8696848,29.3075937 72.8696848,28.7300217 L72.8696848,21.9289021 L81.7391799,21.9289021 L81.7391799,66.0503806 Z M17.2172552,27.6836956 L23.9998103,27.6836956 L23.9998103,21.9289021 L17.2172552,21.9289021 L17.2172552,27.6836956 Z M33.6519079,12.8195872 C33.6519079,9.21185487 36.5798847,6.27795653 40.1756824,6.27795653 L47.8243176,6.27795653 C51.4201153,6.27795653 54.3480921,9.21185487 54.3480921,12.8195872 L54.3480921,15.6509456 L33.6519079,15.6509456 L33.6519079,12.8195872 Z M64.0001897,27.6836956 L70.7827448,27.6836956 L70.7827448,21.9289021 L64.0001897,21.9289021 L64.0001897,27.6836956 Z M84.86959,15.6509456 L60.6089122,15.6509456 L60.6089122,12.8195872 C60.6089122,5.75060818 54.8719141,0 47.8243176,0 L40.1756824,0 C33.1280859,0 27.3910878,5.75060818 27.3910878,12.8195872 L27.3910878,15.6509456 L3.13041004,15.6509456 C1.40033676,15.6509456 0,17.0572079 0,18.7899239 L0,76.8610217 C0,78.5937377 1.40033676,80 3.13041004,80 L84.86959,80 C86.5975763,80 88,78.5937377 88,76.8610217 L88,18.7899239 C88,17.0572079 86.5975763,15.6509456 84.86959,15.6509456 Z"/>
</svg>
