<svg xmlns="http://www.w3.org/2000/svg" width="74" height="79" viewBox="0 0 74 79" xmlns:xlink="http://www.w3.org/1999/xlink">
  <defs>
    <polygon id="a" points="0 .001 73.151 .001 73.151 78.642 0 78.642"/>
  </defs>
  <g fill="none" fill-rule="evenodd">
    <mask id="b" fill="white">
      <use xlink:href="#a"/>
    </mask>
    <path fill="#FF0000" d="M62.2357412,70.812973 L57.8153294,66.4194595 L60.8493294,63.4054054 L65.2719176,67.7967568 L62.2357412,70.812973 Z M34.8230941,37.5502703 L59.3105647,61.8767568 L56.2765647,64.8908108 L31.7890941,40.5643243 L34.8230941,37.5502703 Z M14.0247412,49.04 L6.60732941,41.6735135 L6.53985882,32.3308108 L31.2014471,7.82918919 L39.4742118,16.0454054 L13.8114471,41.5394595 C13.3870353,41.9632432 13.3870353,42.6464865 13.8114471,43.0681081 C14.0247412,43.28 14.3033294,43.3859459 14.5797412,43.3859459 C14.8583294,43.3859459 15.1369176,43.28 15.3502118,43.0681081 L41.0129765,17.5740541 L43.3548588,19.9027027 L32.5160353,30.6702703 L24.8635647,38.2724324 L14.0247412,49.04 Z M72.1952706,65.5048649 L39.4393882,32.9643243 L50.2803882,22.1945946 C50.8919765,21.587027 51.2358588,20.7632432 51.2358588,19.9027027 C51.2358588,19.0421622 50.8919765,18.2162162 50.2803882,17.6086486 L33.5106824,0.949189189 C32.2352706,-0.315675676 30.1698,-0.315675676 28.8943882,0.949189189 L0.957211765,28.7027027 C0.339094118,29.3167568 -0.00696470588,30.1513514 -0.000435294118,31.0205405 L0.0888,43.0508108 C0.0953294118,43.9027027 0.439211765,44.7178378 1.04644706,45.3189189 L11.7155059,55.92 C12.3532118,56.5535135 13.1889765,56.8691892 14.0247412,56.8691892 C14.8583294,56.8691892 15.6940941,56.5535135 16.3318,55.92 L27.1728,45.1502703 L59.9265059,77.692973 C60.5402706,78.3005405 61.3716824,78.6421622 62.2357412,78.6421622 C63.0998,78.6421622 63.9312118,78.3005405 64.5449765,77.692973 L72.1952706,70.0908108 C73.4706824,68.8259459 73.4706824,66.7718919 72.1952706,65.5048649 Z" mask="url(#b)"/>
  </g>
</svg>
