<svg xmlns="http://www.w3.org/2000/svg" width="80" height="80" viewBox="0 0 80 80">
  <g fill="#FF0000" fill-rule="evenodd">
    <path d="M55.5902222,5.33333333 C45.5422222,5.33333333 37.368,13.5075556 37.368,23.5555556 C37.368,33.6035556 45.5422222,41.7777778 55.5902222,41.7777778 C65.6382222,41.7777778 73.8124444,33.6035556 73.8124444,23.5555556 C73.8124444,13.5075556 65.6382222,5.33333333 55.5902222,5.33333333 M55.5902222,47.1111111 C42.6017778,47.1111111 32.0346667,36.544 32.0346667,23.5555556 C32.0346667,10.5671111 42.6017778,0 55.5902222,0 C68.5786667,0 79.1457778,10.5671111 79.1457778,23.5555556 C79.1457778,36.544 68.5786667,47.1111111 55.5902222,47.1111111"/>
    <path d="M55.5902222,11.2448 C48.8026667,11.2448 43.2791111,16.7665778 43.2791111,23.5559111 C43.2791111,30.3434667 48.8026667,35.8670222 55.5902222,35.8670222 C62.3777778,35.8670222 67.9013333,30.3434667 67.9013333,23.5559111 C67.9013333,16.7665778 62.3777778,11.2448 55.5902222,11.2448 M55.5902222,37.6448 C47.8213333,37.6448 41.5013333,31.3230222 41.5013333,23.5559111 C41.5013333,15.7870222 47.8213333,9.46702222 55.5902222,9.46702222 C63.3591111,9.46702222 69.6791111,15.7870222 69.6791111,23.5559111 C69.6791111,31.3230222 63.3591111,37.6448 55.5902222,37.6448"/>
    <path d="M55.5902222,17.6675556 C52.344,17.6675556 49.7004444,20.3093333 49.7004444,23.5555556 C49.7004444,26.8017778 52.344,29.4435556 55.5902222,29.4435556 C58.8364444,29.4435556 61.48,26.8017778 61.48,23.5555556 C61.48,20.3093333 58.8364444,17.6675556 55.5902222,17.6675556 M55.5902222,31.2213333 C51.3626667,31.2213333 47.9244444,27.7813333 47.9244444,23.5555556 C47.9244444,19.3297778 51.3626667,15.8897778 55.5902222,15.8897778 C59.8177778,15.8897778 63.256,19.3297778 63.256,23.5555556 C63.256,27.7813333 59.8177778,31.2213333 55.5902222,31.2213333"/>
    <path d="M57.4062222,23.5555556 C57.4062222,24.5582222 56.5937778,25.3724444 55.5911111,25.3724444 C54.5866667,25.3724444 53.7742222,24.5582222 53.7742222,23.5555556 C53.7742222,22.5528889 54.5866667,21.7404444 55.5911111,21.7404444 C56.5937778,21.7404444 57.4062222,22.5528889 57.4062222,23.5555556"/>
    <path d="M55.5902222 22.6284444C55.08 22.6284444 54.664 23.0444444 54.664 23.5546667 54.664 24.0666667 55.08 24.4826667 55.5902222 24.4826667 56.1004444 24.4826667 56.5164444 24.0666667 56.5164444 23.5546667 56.5164444 23.0444444 56.1004444 22.6284444 55.5902222 22.6284444M55.5902222 26.2604444C54.0986667 26.2604444 52.8862222 25.048 52.8862222 23.5546667 52.8862222 22.0648889 54.0986667 20.8506667 55.5902222 20.8506667 57.0817778 20.8506667 58.2942222 22.0648889 58.2942222 23.5546667 58.2942222 25.048 57.0817778 26.2604444 55.5902222 26.2604444M7.56248889 72.4721778C7.33493333 72.4721778 7.10737778 72.3850667 6.93315556 72.2126222 6.58648889 71.8641778 6.58648889 71.3024 6.93315556 70.9539556L33.8291556 44.0597333C34.1776 43.7112889 34.7393778 43.7112889 35.0860444 44.0597333 35.4344889 44.4064 35.4344889 44.9681778 35.0860444 45.3166222L8.19182222 72.2126222C8.0176 72.3850667 7.79004444 72.4721778 7.56248889 72.4721778"/>
    <path d="M34.4583111 50.0545778C33.9676444 50.0545778 33.5694222 49.6563556 33.5694222 49.1656889L33.5694222 45.5763556 29.9800889 45.5763556C29.4894222 45.5763556 29.0912 45.1781333 29.0912 44.6874667 29.0912 44.1968 29.4894222 43.7985778 29.9800889 43.7985778L34.4583111 43.7985778C34.9489778 43.7985778 35.3472 44.1968 35.3472 44.6874667L35.3472 49.1656889C35.3472 49.6563556 34.9489778 50.0545778 34.4583111 50.0545778M11.1093333 75.9253333C10.6186667 75.9253333 10.2204444 75.5271111 10.2204444 75.0364444L10.2204444 68.9244444 4.10844444 68.9244444C3.61777778 68.9244444 3.22133333 68.528 3.22133333 68.0373333 3.22133333 67.5448889 3.61777778 67.1484444 4.10844444 67.1484444L11.1093333 67.1484444C11.6 67.1484444 11.9982222 67.5448889 11.9982222 68.0373333L11.9982222 75.0364444C11.9982222 75.5271111 11.6 75.9253333 11.1093333 75.9253333"/>
    <path d="M7.88888889,79.1466667 C7.39822222,79.1466667 7,78.7484444 7,78.2577778 L7,72.1457778 L0.888,72.1457778 C0.397333333,72.1457778 0.000888888889,71.7493333 0.000888888889,71.2586667 C0.000888888889,70.7662222 0.397333333,70.3697778 0.888,70.3697778 L7.88888889,70.3697778 C8.37955556,70.3697778 8.77777778,70.7662222 8.77777778,71.2586667 L8.77777778,78.2577778 C8.77777778,78.7484444 8.37955556,79.1466667 7.88888889,79.1466667"/>
  </g>
</svg>
