<svg xmlns="http://www.w3.org/2000/svg" width="91" height="79" viewBox="0 0 91 79" xmlns:xlink="http://www.w3.org/1999/xlink">
  <defs>
    <polygon id="a" points=".591 .436 11.502 .436 11.502 26.353 .591 26.353"/>
  </defs>
  <g fill="none" fill-rule="evenodd">
    <path fill="#FF0000" d="M45.2512,6 C52.5992,6 58.5752,11.978 58.5752,19.326 C58.5752,26.674 52.5992,32.65 45.2512,32.65 C37.9032,32.65 31.9252,26.674 31.9252,19.326 C31.9252,11.978 37.9032,6 45.2512,6 M45.2512,38.65 C55.9072,38.65 64.5752,29.982 64.5752,19.326 C64.5752,8.67 55.9072,0 45.2512,0 C34.5952,0 25.9252,8.67 25.9252,19.326 C25.9252,29.982 34.5952,38.65 45.2512,38.65"/>
    <path fill="#FF0000" d="M64.6594,37.8418 C63.3254,36.8538 61.4514,37.1318 60.4614,38.4618 C59.4734,39.7938 59.7514,41.6718 61.0814,42.6578 C65.4154,45.8778 69.0814,50.3778 71.6834,55.6758 C73.6514,59.6878 73.4254,64.6878 71.1014,68.4158 C70.1494,69.9438 68.0314,72.5038 64.5174,72.5038 L25.9854,72.5038 C22.4714,72.5038 20.3514,69.9438 19.3994,68.4158 C17.0774,64.6898 16.8494,59.6878 18.8194,55.6758 C21.4214,50.3758 25.0874,45.8758 29.4194,42.6578 C30.7514,41.6718 31.0294,39.7938 30.0394,38.4638 C29.0534,37.1318 27.1754,36.8538 25.8454,37.8418 C20.7474,41.6238 16.4554,46.8778 13.4334,53.0318 C10.5714,58.8598 10.9154,66.1438 14.3074,71.5898 C17.0454,75.9838 21.3014,78.5038 25.9854,78.5038 L64.5174,78.5038 C69.1994,78.5038 73.4554,75.9838 76.1954,71.5878 C79.5874,66.1438 79.9314,58.8598 77.0694,53.0318 C74.0474,46.8798 69.7574,41.6278 64.6594,37.8418"/>
    <path fill="#ED3338" d="M9.3158,37.1348 C5.9918,39.5988 3.1878,43.0328 1.2058,47.0648 C-0.5802,50.7068 -0.3682,55.2548 1.7498,58.6528 C3.4138,61.3248 5.9818,62.8568 8.7938,62.8568 C9.3478,62.8568 9.7938,62.4108 9.7938,61.8568 C9.7938,61.3048 9.3478,60.8568 8.7938,60.8568 C6.6878,60.8568 4.7378,59.6688 3.4458,57.5948 C1.6878,54.7688 1.5118,50.9828 3.0038,47.9468 C4.8438,44.1988 7.4398,41.0168 10.5078,38.7408 C10.9498,38.4128 11.0438,37.7848 10.7138,37.3428 C10.3858,36.9008 9.7618,36.8088 9.3158,37.1348"/>
    <path fill="#FF0000" d="M17.8704,35.1388 C17.9804,35.1788 18.0904,35.1948 18.2004,35.1948 C18.6124,35.1948 18.9984,34.9368 19.1444,34.5248 C19.3284,34.0048 19.0524,33.4328 18.5304,33.2528 C14.4964,31.8408 11.7884,28.0168 11.7884,23.7408 C11.7884,18.2908 16.0584,13.8728 21.5084,13.6828 C22.0604,13.6648 22.4944,13.2008 22.4744,12.6488 C22.4524,12.0968 21.9904,11.6848 21.4384,11.6828 C14.9064,11.9128 9.7884,17.2068 9.7884,23.7408 C9.7884,28.8648 13.0364,33.4448 17.8704,35.1388"/>
    <g transform="translate(79 36.504)">
      <mask id="b" fill="white">
        <use xlink:href="#a"/>
      </mask>
      <path fill="#FF0000" d="M10.2962,10.5606 C8.3162,6.5306 5.5122,3.0986 2.1862,0.6306 C1.7442,0.3046 1.1162,0.3966 0.7882,0.8386 C0.4582,1.2806 0.5522,1.9086 0.9962,2.2366 C4.0662,4.5166 6.6622,7.6986 8.5002,11.4426 C9.9922,14.4786 9.8162,18.2666 8.0562,21.0926 C6.7622,23.1646 4.8162,24.3526 2.7082,24.3526 C2.1562,24.3526 1.7082,24.8006 1.7082,25.3526 C1.7082,25.9066 2.1562,26.3526 2.7082,26.3526 C5.5202,26.3526 8.0882,24.8206 9.7542,22.1486 C11.8702,18.7506 12.0842,14.2006 10.2962,10.5606" mask="url(#b)"/>
    </g>
    <path fill="#FF0000" d="M68.9934,13.6836 C74.4454,13.8736 78.7134,18.2916 78.7134,23.7396 C78.7134,28.0176 76.0054,31.8396 71.9714,33.2516 C71.4514,33.4336 71.1754,34.0036 71.3594,34.5256 C71.5034,34.9376 71.8894,35.1956 72.3014,35.1956 C72.4114,35.1956 72.5234,35.1776 72.6314,35.1396 C77.4654,33.4456 80.7134,28.8656 80.7134,23.7396 C80.7134,17.2076 75.5974,11.9116 69.0634,11.6836 C68.5394,11.7236 68.0474,12.0976 68.0294,12.6476 C68.0094,13.2016 68.4434,13.6636 68.9934,13.6836"/>
  </g>
</svg>
