<svg xmlns="http://www.w3.org/2000/svg" width="30" height="30" viewBox="0 0 30 30" xmlns:xlink="http://www.w3.org/1999/xlink">
  <defs>
    <polygon id="a" points="0 0 30 0 30 30 0 30"/>
  </defs>
  <g fill="none" fill-rule="evenodd">
    <mask id="b" fill="white">
      <use xlink:href="#a"/>
    </mask>
    <path fill="#0076C3" d="M30,15.00012 C30,23.28432 23.2842,30.00012 15,30.00012 C6.7158,30.00012 0,23.28432 0,15.00012 C0,6.71532 6.7158,0.00012 15,0.00012 C23.2842,0.00012 30,6.71532 30,15.00012" mask="url(#b)"/>
    <path fill="#FFFFFF" d="M18.71118,15.00012 L16.30638,15.00012 L16.30638,23.90472 L12.28878,23.90472 L12.28878,15.00012 L10.72878,15.00012 L10.72878,11.99592 L12.28878,11.99592 L12.28878,10.08852 C12.28878,7.58232 13.32738,6.09552 16.28178,6.09552 L19.27098,6.09552 L19.27098,9.08472 L17.53278,9.08472 C16.38318,9.08472 16.31178,9.51492 16.31178,10.31112 L16.30638,11.99592 L19.03998,11.99592 L18.71118,15.00012 Z"/>
  </g>
</svg>
