<svg xmlns="http://www.w3.org/2000/svg" width="27" height="79" viewBox="0 0 27 79" xmlns:xlink="http://www.w3.org/1999/xlink">
  <defs>
    <polygon id="a" points="0 .126 27.003 .126 27.003 78.367 0 78.367"/>
  </defs>
  <g fill="none" fill-rule="evenodd">
    <g transform="translate(0 .507)">
      <mask id="b" fill="white">
        <use xlink:href="#a"/>
      </mask>
      <path fill="#FF0000" d="M13.5018776,72.5350204 L5.12473469,64.5529796 L13.4071837,24.7668571 C13.4398367,24.7684898 13.4708571,24.7766531 13.5018776,24.7766531 C13.532898,24.7766531 13.5639184,24.7684898 13.5965714,24.7668571 L21.8790204,64.5529796 L13.5018776,72.5350204 Z M5.13289796,8.57746939 C5.13289796,8.02236735 5.15412245,6.83706122 5.18187755,5.81665306 C10.690449,4.75379592 16.3133061,4.75379592 21.8202449,5.81665306 C21.8496327,6.83706122 21.8708571,8.02236735 21.8708571,8.57746939 C21.8708571,13.7268571 19.4300408,16.9905306 13.5018776,19.6599184 C7.57208163,16.9905306 5.13289796,13.7268571 5.13289796,8.57746939 Z M26.9516735,64.8876735 L18.1826939,22.7701224 C22.5451429,20.2672653 26.7688163,16.1382857 26.7688163,8.57746939 C26.7688163,8.06971429 26.7214694,4.45828571 26.6071837,3.52277551 C26.4847347,2.50236735 25.7386122,1.66971429 24.7377959,1.43297959 C17.3402449,-0.310693878 9.66514286,-0.310693878 2.26595918,1.43297959 C1.26514286,1.66971429 0.519020408,2.50073469 0.394938776,3.52114286 C0.274122449,4.51216327 0.234938776,8.27542857 0.234938776,8.57746939 C0.234938776,16.141551 4.45697959,20.268898 8.82106122,22.7701224 L0.0520816327,64.8876735 C-0.120979592,65.7170612 0.14677551,66.5774694 0.759020408,67.1603265 L11.8120816,77.6909388 C12.285551,78.1431837 12.892898,78.3668571 13.5018776,78.3668571 C14.1092245,78.3668571 14.7182041,78.1431837 15.1916735,77.6909388 L26.2447347,67.1603265 C26.8569796,66.5774694 27.1247347,65.7170612 26.9516735,64.8876735 Z" mask="url(#b)"/>
    </g>
    <path fill="#FF0000" d="M13.4581224 68.2625306C13.6197551 68.4453878 13.8450612 68.5400816 14.0703673 68.5400816 14.2630204 68.5400816 14.4556735 68.4731429 14.6107755 68.336L18.8409796 64.613551C19.1789388 64.3164082 19.2132245 63.8004898 18.914449 63.4625306 18.6189388 63.1245714 18.1013878 63.0902857 17.7634286 63.3890612L13.5315918 67.1115102C13.1936327 67.4086531 13.1609796 67.9245714 13.4581224 68.2625306M14.5239184 17.1209796C17.7810612 14.949551 19.3859592 12.0075102 19.288 8.3797551 19.2749388 7.93730612 18.9124898 7.58628571 18.4716735 7.58628571L18.4488163 7.58628571C17.9998367 7.59934694 17.6439184 7.97322449 17.6553469 8.42546939 17.7386122 11.4964898 16.4161633 13.8964898 13.6177959 15.7626122 13.2422857 16.0124082 13.1410612 16.5201633 13.3924898 16.8940408 13.5492245 17.1307755 13.8088163 17.2581224 14.0716735 17.2581224 14.2267755 17.2581224 14.3851429 17.2140408 14.5239184 17.1209796"/>
  </g>
</svg>
