<svg xmlns="http://www.w3.org/2000/svg" width="76" height="78" viewBox="0 0 76 78" xmlns:xlink="http://www.w3.org/1999/xlink">
  <defs>
    <polygon id="a" points=".826 1.666 29.334 1.666 29.334 30.34 .826 30.34"/>
  </defs>
  <g fill="none" fill-rule="evenodd" transform="translate(0 -1)">
    <path fill="#FF0000" d="M72.6860465,1.89066667 L55.4534884,1.89066667 C53.9900465,1.89066667 52.8023256,3.08533333 52.8023256,4.55733333 L52.8023256,19.224 L37.7790698,19.224 C36.3156279,19.224 35.127907,20.4186667 35.127907,21.8906667 L35.127907,37.0017778 L20.1046512,37.0017778 C18.6412093,37.0017778 17.4534884,38.1964444 17.4534884,39.6684444 L17.4534884,55.0017778 L2.65116279,55.0017778 C1.18772093,55.0017778 0,56.1964444 0,57.6684444 L0,75.6684444 C0,77.1404444 1.18772093,78.3351111 2.65116279,78.3351111 C4.11460465,78.3351111 5.30232558,77.1404444 5.30232558,75.6684444 L5.30232558,60.3351111 L20.1046512,60.3351111 C21.568093,60.3351111 22.755814,59.1404444 22.755814,57.6684444 L22.755814,42.3351111 L37.7790698,42.3351111 C39.2425116,42.3351111 40.4302326,41.1404444 40.4302326,39.6684444 L40.4302326,24.5573333 L55.4534884,24.5573333 C56.9169302,24.5573333 58.1046512,23.3626667 58.1046512,21.8906667 L58.1046512,7.224 L72.6860465,7.224 C74.1494884,7.224 75.3372093,6.02933333 75.3372093,4.55733333 C75.3372093,3.08533333 74.1494884,1.89066667 72.6860465,1.89066667"/>
    <g transform="translate(5.302 .113)">
      <mask id="b" fill="white">
        <use xlink:href="#a"/>
      </mask>
      <path fill="#FF0000" d="M1.71053023,30.3402667 C1.93676279,30.3402667 2.16299535,30.2531556 2.33620465,30.0807111 L27.5664372,4.69937778 L27.5664372,7.0336 C27.5664372,7.52426667 27.9623442,7.92248889 28.4501581,7.92248889 C28.9379721,7.92248889 29.3338791,7.52426667 29.3338791,7.0336 L29.3338791,2.5536 C29.3338791,2.43804444 29.3091349,2.32248889 29.2667163,2.21582222 C29.1765767,1.99715556 29.0033674,1.82293333 28.7877395,1.73226667 C28.6799256,1.68782222 28.5650419,1.66471111 28.4501581,1.66471111 L23.9979721,1.66471111 C23.5101581,1.66471111 23.1142512,2.06293333 23.1142512,2.5536 C23.1142512,3.04426667 23.5101581,3.44248889 23.9979721,3.44248889 L26.3168558,3.44248889 L1.08485581,28.8220444 C0.740204651,29.1704889 0.740204651,29.7322667 1.08485581,30.0807111 C1.25806512,30.2531556 1.48429767,30.3402667 1.71053023,30.3402667" mask="url(#b)"/>
    </g>
  </g>
</svg>
