<svg xmlns="http://www.w3.org/2000/svg" width="21" height="20" viewBox="0 0 21 20" xmlns:xlink="http://www.w3.org/1999/xlink">
  <defs>
    <polygon id="a" points="0 0 20.813 0 20.813 20 0 20"/>
  </defs>
  <g fill="none" fill-rule="evenodd">
    <mask id="b" fill="white">
      <use xlink:href="#a"/>
    </mask>
    <path fill="#231F20" d="M19.249641,16.9634012 C16.4686403,18.2166047 13.4976057,18.8513863 10.4065041,18.8513863 C7.31540245,18.8513863 4.34436778,18.2166047 1.56336714,16.9634012 C1.38380023,16.8824644 1.29147621,16.6800211 1.35250051,16.4932789 C1.92234853,14.7499975 3.00259544,13.1848986 4.44903893,12.0262057 C4.93098351,11.6400592 5.44138239,11.3056757 5.97510363,11.0243216 C7.12811223,12.1224384 8.68969398,12.7977897 10.4065041,12.7977897 C12.1233141,12.7977897 13.6848451,12.1224384 14.8379045,11.0243216 C15.3716257,11.3056757 15.8820246,11.6400592 16.3639692,12.0262057 C17.8104127,13.1848986 18.8906596,14.7499975 19.4604568,16.4932789 C19.5215319,16.6800211 19.4292079,16.8824644 19.249641,16.9634012 M10.4065041,1.14851244 C13.3108236,1.14851244 15.6736477,3.50383412 15.6736477,6.39886952 C15.6736477,9.29390492 13.3108236,11.6491759 10.4065041,11.6491759 C7.50218455,11.6491759 5.1393604,9.29390492 5.1393604,6.39886952 C5.1393604,3.50383412 7.50218455,1.14851244 10.4065041,1.14851244 M20.7979102,17.0015904 C20.2602257,14.7027421 18.9418773,12.6178345 17.0857936,11.1309373 C16.6214297,10.7589218 16.1273413,10.4285396 15.6102353,10.1413102 C16.3746396,9.08816945 16.825945,7.79515595 16.825945,6.39886952 C16.825945,2.87047073 13.9461673,0 10.4065041,0 C6.86684084,0 3.98706316,2.87047073 3.98706316,6.39886952 C3.98706316,7.79515595 4.43836857,9.08816945 5.20277282,10.1413102 C4.68566686,10.4285396 4.19152758,10.7589218 3.72721449,11.1309373 C1.87113081,12.6178345 0.552782444,14.7027421 0.0150979312,17.0015904 C-0.0455198748,17.260811 0.0804919936,17.5276289 0.319558865,17.6461471 C3.46960152,19.2080045 6.86333487,20 10.4065041,20 C13.9496733,20 17.3434066,19.2080045 20.4934493,17.6461471 C20.7325161,17.5276289 20.858528,17.260811 20.7979102,17.0015904" mask="url(#b)"/>
  </g>
</svg>
