<svg xmlns="http://www.w3.org/2000/svg" width="106" height="35" viewBox="0 0 106 35">
  <g fill="none" fill-rule="evenodd">
    <path fill="#FFFFFF" d="M102.934195,32.1711964 L105.813953,32.1711964 L105.813953,20.3488372 L102.934195,20.3488372 L102.934195,32.1711964 Z M90.4820529,27.1112439 L95.2192489,27.1112439 C95.877396,27.1112439 96.3658873,27.2017541 96.6817979,27.3856479 C97.0006336,27.568105 97.1600514,27.9315826 97.1600514,28.4732072 C97.1600514,29.0047752 97.0064838,29.3610694 96.7037361,29.5435265 C96.3995259,29.7274203 95.9285852,29.8193672 95.2865262,29.8193672 L90.4820529,29.8193672 L90.4820529,27.1112439 Z M87.599369,20.3488372 L87.599369,32.1711964 L95.8071936,32.1711964 C96.5545561,32.1711964 97.1907649,32.1151662 97.7143574,32.0045426 C98.2350249,31.8910457 98.6679394,31.7014052 99.0087133,31.4313112 C99.3509497,31.1612172 99.6068958,30.7876829 99.7794765,30.3078351 C99.9520573,29.8251139 100.038348,29.2145291 100.038348,28.4760806 C100.038348,27.4977082 99.8803924,26.736273 99.5644819,26.1932116 C99.2514964,25.651587 98.7849433,25.2780527 98.1648225,25.0726089 C97.5432392,24.8657283 96.7344496,24.7594148 95.7340662,24.7594148 L90.4820529,24.7594148 L90.4820529,20.3488372 L87.599369,20.3488372 Z M73.1874117,20.3488372 L86.1777714,20.3488372 L86.1777714,22.7006663 L81.0983389,22.7006663 L81.0983389,32.1711964 L78.21858,32.1711964 L78.21858,22.7006663 L73.1874117,22.7006663 L73.1874117,20.3488372 Z M71.4733043,32.1711964 L71.4733043,20.3488372 L66.6337299,20.3488372 L59.2975844,29.8222406 L58.8983085,29.8222406 L58.8983085,20.3488372 L56.0200122,20.3488372 L56.0200122,32.1711964 L60.9648901,32.1711964 L68.1957321,22.7049764 L68.5935454,22.7049764 L68.5935454,32.1711964 L71.4733043,32.1711964 Z M51.7347438,32.1711964 L33.1603722,32.1711964 L33.1603722,20.3488372 L36.0386685,20.3488372 L36.0386685,29.8222406 L41.6416935,29.8222406 L41.6416935,20.3488372 L44.5199898,20.3488372 L44.5199898,29.8222406 L50.1215523,29.8222406 L50.1215523,20.3488372 L53.0013112,20.3488372 L53.0013112,29.8222406 L54.3336932,29.8222406 L54.3336932,35 L51.7347438,35 L51.7347438,32.1711964 Z M21.0519295,26.9589568 L25.8578653,26.9589568 L23.5675137,22.5656193 L23.4314966,22.5656193 L21.0519295,26.9589568 Z M18.3301259,32.1711964 L14.9677259,32.1711964 L21.3488269,20.3488372 L25.6150822,20.3488372 L31.9464566,32.1711964 L28.5621183,32.1711964 L27.0176666,29.1915423 L19.8906656,29.1915423 L18.3301259,32.1711964 Z M4.05564822,32.1711964 C3.0421018,32.1711964 2.23769988,32.0519527 1.64829266,31.8149021 C1.05888543,31.5764149 0.63620879,31.2129373 0.381725274,30.7230328 C0.127241758,30.2316916 0,29.59381 0,28.8165714 L2.94703612,28.8165714 C2.94703612,29.1125255 3.08451572,29.3725628 3.36240002,29.5995567 C3.63882177,29.8251139 3.97520803,29.9386109 4.37009624,29.9386109 L9.19212011,29.9386109 C9.83417909,29.9386109 10.3065824,29.8337339 10.60933,29.6268534 C10.9135402,29.4185362 11.0656453,29.0809187 11.0656453,28.6125643 C11.0656453,28.3065535 11.0144561,28.0536995 10.9135402,27.8583124 C10.8111618,27.6643619 10.6151802,27.5135115 10.3226704,27.4086346 C10.0330858,27.3037577 9.62649714,27.2506009 9.10290462,27.2506009 L3.81579019,27.2506009 L3.81579019,25.1889791 L9.43490323,25.1889791 C10.3606967,25.1889791 10.8228622,24.7292447 10.8228622,23.8083391 C10.8228622,22.9923104 10.3606967,22.5828594 9.43490323,22.5828594 L4.59386623,22.5828594 C4.02493469,22.5828594 3.64467197,22.6676229 3.4545406,22.8357133 C3.26587179,23.0066771 3.15325552,23.2897011 3.12254199,23.6876588 L0.239858027,23.6876588 C0.239858027,22.9204769 0.381725274,22.2912153 0.665459769,21.7998741 C0.947731715,21.3085329 1.39088404,20.9450553 1.99784186,20.7065681 C2.60187457,20.4680808 3.38726335,20.3488372 4.35254565,20.3488372 L9.24477187,20.3488372 C10.3153577,20.3488372 11.1709488,20.4594608 11.8115453,20.6835814 C12.4536043,20.9091386 12.924545,21.2596861 13.2199799,21.7467173 C13.5168773,22.2308752 13.6777577,22.8788134 13.702621,23.6876588 C13.6733701,24.4031205 13.5256526,24.9447452 13.2623938,25.3197161 C13.0005976,25.6946871 12.610097,25.9834578 12.0894296,26.1903383 C12.684687,26.4044021 13.1410023,26.6931729 13.4569128,27.0681438 C13.7713608,27.4402414 13.9278536,27.9459493 13.9278536,28.5780842 C13.9278536,29.4156629 13.7859863,30.0995179 13.5051769,30.6310859 C13.2258301,31.1583439 12.788528,31.5476815 12.1932705,31.7976621 C11.6009382,32.0476427 10.8257873,32.1711964 9.87220537,32.1711964 L4.05564822,32.1711964 Z"/>
    <path fill="#FFFFFF" d="M79.7674419,0 L70.6780595,0 C69.7832348,0 69.023725,0.123146445 68.4024402,0.369439334 C67.7811553,0.615732223 67.2922755,1.05490509 66.9416206,1.691409 C66.5909657,2.32791291 66.4149107,3.1943891 66.4149107,4.29528864 C66.4149107,4.89618394 66.5385857,5.45850325 66.7859356,5.97779549 C67.0332856,6.50005511 67.3592055,6.9332932 67.7607853,7.27602608 C68.1638202,7.62024265 68.5945001,7.84428015 69.058645,7.95258968 L65.552096,12.2093023 L69.2798049,12.2093023 L72.1446991,8.34131701 L76.9025477,8.34131701 L76.9025477,12.2093023 L79.7674419,12.2093023 L79.7674419,0 Z M76.9025477,2.30714122 L76.9025477,6.0326921 L71.0025244,6.0326921 C70.4030646,6.0326921 69.9709297,5.88729027 69.7002998,5.59055185 C69.4311249,5.29678081 69.2885349,4.82199934 69.2798049,4.16917481 C69.2798049,3.50596444 69.3976599,3.02821558 69.6333698,2.74186301 C69.8690797,2.45105936 70.2983046,2.30714122 70.9195894,2.30714122 L76.9025477,2.30714122 Z M64.0869114,12.2093023 L64.0869114,0 L59.2723178,0 L51.9725849,9.78346574 L51.576825,9.78346574 L51.576825,0 L48.7119309,0 L48.7119309,12.2093023 L53.6327394,12.2093023 L60.8248024,2.43325505 L61.2220172,2.43325505 L61.2220172,12.2093023 L64.0869114,12.2093023 Z M33.5799353,12.2093023 L33.5799353,0 L36.4448294,0 L36.4448294,4.68104859 L43.8304073,4.68104859 L43.8304073,0 L46.7113064,0 L46.7113064,12.2093023 L43.8304073,12.2093023 L43.8304073,7.10985256 L36.4448294,7.10985256 L36.4448294,12.2093023 L33.5799353,12.2093023 Z M31.5793108,12.2093023 L31.5793108,0 L26.7647172,0 L19.4664394,9.78346574 L19.0692245,9.78346574 L19.0692245,0 L16.2043303,0 L16.2043303,12.2093023 L21.1251389,12.2093023 L28.3186568,2.43325505 L28.7144167,2.43325505 L28.7144167,12.2093023 L31.5793108,12.2093023 Z M14.2007959,0 L14.2007959,12.2093023 L11.3359017,12.2093023 L11.3359017,2.42732028 L4.60361866,2.42732028 L4.60361866,7.77751401 C4.60361866,10.7330287 3.47017399,12.2093023 1.20473965,12.2093023 L0,12.2093023 L0,9.78346574 C0.494699856,9.78346574 0.864269749,9.71224851 1.10579968,9.56833038 C1.35023961,9.42737963 1.51901956,9.19592366 1.60777453,8.87099509 C1.69652951,8.54606652 1.7401795,8.06980135 1.7401795,7.44368329 L1.7401795,0 L3.93431886,0 L11.3184417,0 L14.2007959,0 Z"/>
  </g>
</svg>
