<svg xmlns="http://www.w3.org/2000/svg" width="122" height="9" viewBox="0 0 122 7" xmlns:xlink="http://www.w3.org/1999/xlink">
  <defs>
    <polygon id="a" points="0 0 122 0 122 9 0 9"/>
  </defs>
  <g fill="none" fill-rule="evenodd">
    <mask id="b" fill="white">
      <use xlink:href="#a"/>
    </mask>
    <path fill="#000000" d="M120.203815,7.26230633 L122,7.26230633 L122,0 L120.203815,0 L120.203815,7.26230633 Z M112.436158,4.15404981 L115.39179,4.15404981 C115.801382,4.15404981 116.105155,4.20964895 116.304022,4.32261228 C116.501977,4.43469308 116.60141,4.65797215 116.60141,4.99068445 C116.60141,5.31721906 116.505625,5.53608551 116.315881,5.64816631 C116.127049,5.76112963 115.83331,5.8176113 115.433753,5.8176113 L112.436158,5.8176113 L112.436158,4.15404981 Z M110.63906,0 L110.63906,7.26230633 L115.757595,7.26230633 C116.224658,7.26230633 116.620567,7.22788782 116.948058,7.15993332 C117.2719,7.09021377 117.541921,6.97372034 117.754471,6.80780545 C117.967934,6.64189057 118.128487,6.41243381 118.235218,6.11767013 C118.342861,5.8211414 118.397595,5.44606786 118.397595,4.9924495 C118.397595,4.3914493 118.298162,3.92371053 118.10112,3.59011571 C117.906814,3.25740341 117.6149,3.02794666 117.228113,2.90174544 C116.841327,2.77554422 116.33595,2.70935478 115.711983,2.70935478 L112.436158,2.70935478 L112.436158,0 L110.63906,0 Z M101.649012,0 L109.751458,0 L109.751458,1.44381251 L106.583276,1.44381251 L106.583276,7.26230633 L104.788003,7.26230633 L104.788003,1.44381251 L101.649012,1.44381251 L101.649012,0 Z M100.578963,7.26230633 L100.578963,0 L97.5622115,0 L92.9855425,5.81937635 L92.7374153,5.81937635 L92.7374153,0 L90.9412301,0 L90.9412301,7.26230633 L94.0263994,7.26230633 L98.534651,1.44734262 L98.7846026,1.44734262 L98.7846026,7.26230633 L100.578963,7.26230633 Z M88.2683898,7.26230633 L76.6830408,7.26230633 L76.6830408,0 L78.4783138,0 L78.4783138,5.81937635 L81.9730753,5.81937635 L81.9730753,0 L83.7692605,0 L83.7692605,5.81937635 L87.2631099,5.81937635 L87.2631099,0 L89.0583829,0 L89.0583829,5.81937635 L89.8903386,5.81937635 L89.8903386,9 L88.2683898,9 L88.2683898,7.26230633 Z M69.1315826,4.06050206 L72.1282654,4.06050206 L70.6997097,1.3617376 L70.6157844,1.3617376 L69.1315826,4.06050206 Z M67.4330062,7.26230633 L65.3366966,7.26230633 L69.3158535,0 L71.9768348,0 L75.925888,7.26230633 L73.815895,7.26230633 L72.8516655,5.43194744 L68.4072702,5.43194744 L67.4330062,7.26230633 Z M58.5305321,7.26230633 C57.897443,7.26230633 57.3957153,7.18905668 57.0280857,7.04343989 C56.6604561,6.89694058 56.396821,6.6736615 56.2380926,6.37272014 C56.0793642,6.07089625 56,5.67993724 56,5.20249068 L57.8381479,5.20249068 C57.8381479,5.38340851 57.92481,5.54314571 58.0972218,5.68258482 C58.2696337,5.8211414 58.4794471,5.89086095 58.7257498,5.89086095 L61.7333794,5.89086095 C62.1347616,5.89086095 62.4285003,5.82643656 62.6173324,5.69935281 C62.8070767,5.57138655 62.9028611,5.36399294 62.9028611,5.07628947 C62.9028611,4.88831143 62.8691085,4.73298686 62.8070767,4.61296333 C62.7441327,4.49382232 62.6209813,4.40115709 62.4394471,4.33673269 C62.2588252,4.2723083 62.0043124,4.23965483 61.6786455,4.23965483 L58.3809261,4.23965483 L58.3809261,2.97323005 L61.88481,2.97323005 C62.4622529,2.97323005 62.7514305,2.69082173 62.7514305,2.12512257 C62.7514305,1.62384781 62.4622529,1.37232791 61.88481,1.37232791 L58.8653214,1.37232791 C58.510463,1.37232791 58.2732827,1.42439694 58.1556047,1.52676995 C58.0379267,1.63267307 57.9667726,1.80653069 57.9476158,2.05099039 L56.1496061,2.05099039 C56.1496061,1.57972151 56.2380926,1.19317513 56.4150657,0.891351245 C56.5920387,0.589527358 56.8675328,0.366248284 57.2461092,0.21974897 C57.6237733,0.0732496568 58.113642,0 58.7157153,0 L61.7662198,0 C62.4339737,0 62.9676296,0.0679545009 63.3671873,0.205628555 C63.7676572,0.344185134 64.061396,0.559521475 64.2447547,0.858697784 C64.43085,1.15699157 64.5321078,1.55412826 64.5467035,2.05099039 C64.5293711,2.49048833 64.4363234,2.82320063 64.2730339,3.05353991 C64.1088321,3.28387919 63.8643538,3.46126692 63.5405114,3.58835066 C63.9117899,3.71984703 64.1973186,3.89723475 64.3934485,4.12757403 C64.5895784,4.35703079 64.6880995,4.66679741 64.6880995,5.05599137 C64.6880995,5.57050402 64.5987008,5.98970386 64.4244644,6.31623848 C64.2493158,6.64012551 63.9765584,6.87929006 63.6052799,7.03284958 C63.2358258,7.1864091 62.753255,7.26230633 62.1575674,7.26230633 L58.5305321,7.26230633 Z" mask="url(#b)"/>
    <path fill="#FF0000" d="M50,0 L44.3025737,0 C43.7416778,0 43.2656002,0.0706039616 42.8761651,0.211811885 C42.48673,0.353019808 42.1802893,0.604812249 41.960491,0.969741159 C41.7406928,1.33467007 41.6303376,1.83144975 41.6303376,2.46263215 C41.6303376,2.80714546 41.7078598,3.12954186 41.8629043,3.42726941 C42.0179487,3.72669826 42.2222425,3.97593875 42.4739617,4.17158829 C42.7265929,4.36893912 42.9965525,4.49738729 43.2874888,4.5603354 L41.0895062,7 L43.4261168,7 L45.2218959,4.78235509 L48.2042209,4.78235509 L48.2042209,7 L50,7 L50,0 Z M48.2042209,1.32276097 L48.2042209,3.45874347 L44.5059555,3.45874347 C44.1302008,3.45874347 43.8593291,3.37537975 43.6896923,3.20524973 C43.5209675,3.036821 43.4315889,2.76461295 43.4261168,2.39032689 C43.4261168,2.01008628 43.4999909,1.73617694 43.6477391,1.57200146 C43.7954873,1.40527403 44.064535,1.32276097 44.45397,1.32276097 L48.2042209,1.32276097 Z M40.1710961,7 L40.1710961,0 L37.1532021,0 L32.5775678,5.60918702 L32.3294967,5.60918702 L32.3294967,0 L30.5337176,0 L30.5337176,7 L33.6181894,7 L38.1263338,1.39506623 L38.3753169,1.39506623 L38.3753169,7 L40.1710961,7 Z M21.0486475,7 L21.0486475,0 L22.8444266,0 L22.8444266,2.68380119 L27.4738705,2.68380119 L27.4738705,0 L29.2796819,0 L29.2796819,7 L27.4738705,7 L27.4738705,4.07631547 L22.8444266,4.07631547 L22.8444266,7 L21.0486475,7 Z M19.7946118,7 L19.7946118,0 L16.7767178,0 L12.2019955,5.60918702 L11.9530124,5.60918702 L11.9530124,0 L10.1572333,0 L10.1572333,7 L13.2417051,7 L17.7507615,1.39506623 L17.9988326,1.39506623 L17.9988326,7 L19.7946118,7 Z M8.90137351,0 L8.90137351,7 L7.10559437,7 L7.10559437,1.39166363 L2.88565018,1.39166363 L2.88565018,4.45910803 C2.88565018,6.15360311 2.17518195,7 0.755157507,7 L0,7 L0,5.60918702 C0.310088831,5.60918702 0.541743429,5.56835581 0.693139741,5.48584275 C0.846360104,5.40503099 0.952155117,5.27232957 1.0077887,5.08603719 C1.06342229,4.8997448 1.09078307,4.62668611 1.09078307,4.26771175 L1.09078307,0 L2.46611824,0 L7.09465006,0 L8.90137351,0 Z" mask="url(#b)"/>
  </g>
</svg>
