<svg xmlns="http://www.w3.org/2000/svg" width="20" height="16" viewBox="0 0 20 16">
  <g fill="#000000" fill-rule="evenodd">
    <path d="M.8164 2L19.1834 2C19.6344 2 20.0004 1.634 20.0004 1.184L20.0004.816C20.0004.366 19.6344 0 19.1834 0L.8164 0C.3654 0 .0004.366.0004.816L.0004 1.184C.0004 1.634.3654 2 .8164 2M.8164 9L19.1834 9C19.6344 9 20.0004 8.634 20.0004 8.184L20.0004 7.816C20.0004 7.366 19.6344 7 19.1834 7L.8164 7C.3654 7 .0004 7.366.0004 7.816L.0004 8.184C.0004 8.634.3654 9 .8164 9M.8164 16L19.1834 16C19.6344 16 20.0004 15.634 20.0004 15.184L20.0004 14.816C20.0004 14.366 19.6344 14 19.1834 14L.8164 14C.3654 14 .0004 14.366.0004 14.816L.0004 15.184C.0004 15.634.3654 16 .8164 16"/>
  </g>
</svg>
