<svg xmlns="http://www.w3.org/2000/svg" width="112" height="64" viewBox="0 0 112 64">
  <g fill="none" fill-rule="evenodd">
    <path fill="#000000" d="M36 56.7293935L35.9287323 55 29.0698972 55 29 56.7293935C29.0349486 56.7425264 29.0698972 56.7542768 29.1062163 56.7542768 29.2974058 56.7542768 29.4276065 56.4902367 29.5584924 56.2621393 29.8325991 55.7803698 30.1416544 55.6725419 30.6782183 55.6725419L31.5594714 55.6725419 31.5594714 63C31.8692119 62.939174 32.1789525 62.9149819 32.5113069 62.9149819 32.7621145 62.9149819 33.1547724 62.939174 33.4281938 63L33.4281938 55.6725419 34.3094469 55.6725419C34.9042584 55.6725419 35.1790504 55.7928115 35.4648067 56.2973907 35.5833578 56.5137377 35.714929 56.7425264 35.8930984 56.7425264 35.9287323 56.7425264 35.9643661 56.7425264 36 56.7293935M42.1657538 60.4701155C42.1657538 61.5213461 41.920246 63.3284782 40.5884501 63.3284782 39.0925339 63.3284782 38.8349188 61.7512808 38.8349188 60.5172275 38.8349188 59.3823204 39.079754 57.6595681 40.4835207 57.6595681 41.8731623 57.6595681 42.1657538 59.3338021 42.1657538 60.4701155M44 60.5305876C44 58.34445 42.6574421 57 40.5763428 57 38.6707985 57 37 58.2699146 37 60.3836263 37 62.6316424 38.3439031 64 40.4593062 64 42.4455655 64 44 62.6808639 44 60.5305876M49.961778 61.9485558C49.961778 62.9359055 49.466502 63.3587392 48.5 63.3587392 47.950612 63.3587392 47.7161263 63.3063462 47.7161263 62.8709677L47.7161263 60.6409445 47.977668 60.6409445C48.3301482 60.6409445 48.7480137 60.6652962 48.9298905 60.7036686 49.5574404 60.8328062 49.961778 61.2689226 49.961778 61.9485558M49.5446639 58.666245C49.5446639 59.6786844 49.0080524 59.9738562 48.0423019 59.9738562 47.9250591 59.9738562 47.8205927 59.9738562 47.7161263 59.9605735L47.7161263 57.8198398C47.7161263 57.6272401 47.7950397 57.6014126 48.1219669 57.6014126 48.7863431 57.6014126 49.5446639 57.7689226 49.5446639 58.666245M52 62.0769555C52 60.8578958 50.7719562 60.1790006 49.6746833 60.0889732 50.5630234 60.0114906 51.4250591 59.4344297 51.4250591 58.4861902 51.4250591 57.6656125 50.6667382 57.2553236 49.922697 57.115117 49.3222031 57 48.8524801 57 48.0949109 57L45 57C45 57.2427788 45.3397037 57.3711786 45.496779 57.5372127 45.7838737 57.8338604 45.7966502 58.2810458 45.7966502 58.6787898L45.7966502 64 48.7998712 64C49.7919261 64 50.39242 63.9358001 50.941808 63.6664558 51.5287739 63.3845667 52 62.857685 52 62.0769555M57.0704566 61.2301044L54.9614958 61.2301044 56.0763028 58.4993149 57.0704566 61.2301044zM60 64L57.6349158 57.8330347C57.4253603 57.2811215 57.2913013 57 56.7755267 57L54.8020361 57C54.8020361 57.3851586 55.4532809 57.2951407 55.4532809 57.8330347 55.4532809 58.0381575 55.3178107 58.3834721 55.2310251 58.6026141L53 64 53.8332829 64 54.6545711 61.9864024 57.3279911 61.9864024 58.075194 64C58.3821187 63.9358069 58.713033 63.9217877 59.0079629 63.9217877 59.3381716 63.9217877 59.6697914 63.9483504 60 64zM67 58.9946007L66.9240784 57.4585371C66.3911668 57.1490424 65.6429006 57 64.9442755 57 62.8644604 57 61 58.3378158 61 60.494295 61 62.749185 62.7381677 64 64.9194549 64 65.5662489 64 66.5174595 63.8402608 66.9613092 63.406683L66.9613092 62.4140179C66.5174595 62.8853912 65.9728677 63.2440913 65.2494221 63.2440913 63.6258669 63.2440913 62.9922132 61.7829055 62.9922132 60.3951711 62.9922132 59.13152 63.6390072 57.6567848 65.0844385 57.6567848 65.4523665 57.6567848 65.7575131 57.7302363 65.9976883 57.9170742 66.2006327 58.0654034 66.3276554 58.3014466 66.4802287 58.6858191 66.5561504 58.9075998 66.7087237 59.0323961 66.8737073 59.0323961 66.9240784 59.0323961 66.9613092 59.0195599 67 58.9946007M75 58.9946007L74.9240784 57.4585371C74.3911668 57.1490424 73.6429006 57 72.9450055 57 70.8644604 57 69 58.3378158 69 60.494295 69 62.749185 70.7381677 64 72.9194549 64 73.5662489 64 74.5174595 63.8402608 74.9613092 63.406683L74.9613092 62.4140179C74.5174595 62.8853912 73.9728677 63.2440913 73.2494221 63.2440913 71.6258669 63.2440913 70.9922132 61.7829055 70.9922132 60.3951711 70.9922132 59.13152 71.6390072 57.6567848 73.0851685 57.6567848 73.4516365 57.6567848 73.7567831 57.7302363 73.9976883 57.9170742 74.2013627 58.0654034 74.3276554 58.3014466 74.4802287 58.6858191 74.5554204 58.9075998 74.7087237 59.0323961 74.8722472 59.0323961 74.9240784 59.0323961 74.9613092 59.0195599 75 58.9946007M81.1657538 60.4701155C81.1657538 61.5213461 80.920246 63.3284782 79.5884501 63.3284782 78.0925339 63.3284782 77.8355914 61.7512808 77.8355914 60.5172275 77.8355914 59.3823204 78.0810993 57.6595681 79.4835207 57.6595681 80.8731623 57.6595681 81.1657538 59.3338021 81.1657538 60.4701155M83 60.5305876C83 58.34445 81.6560969 57 79.5756702 57 77.6707985 57 76 58.2699146 76 60.3836263 76 62.6316424 77.3439031 64 79.4593062 64 81.4455655 64 83 62.6808639 83 60.5305876M5.01174513 48.6571034C5.01174513 49.7860353 4.47597142 50.3508469 3.49965743 50.3508469 2.91660957 50.3508469 2.6672213 50.291393 2.6672213 49.7970964L2.6672213 47.119599 2.95223647 47.119599C3.5599491 47.119599 4.31016933 47.2046319 4.71371244 47.7328033 4.89321719 47.9726927 5.01174513 48.3093674 5.01174513 48.6571034M4.56024273 44.9820256C4.56024273 46.0625648 4.03611628 46.4358797 3.01184301 46.4358797 2.8919448 46.4358797 2.78574924 46.4358797 2.6672213 46.4103007L2.6672213 43.8648462C2.6672213 43.6484618 2.75012235 43.6000691 3.09542919 43.6000691 3.9525301 43.6000691 4.56024273 44.0929831 4.56024273 44.9820256M7 48.80159C7 47.4085724 5.70235881 46.6743865 4.56024273 46.5672312 5.4879123 46.4828897 6.38064011 45.7867266 6.38064011 44.705496 6.38064011 43.7563083 5.59479299 43.2875907 4.80963101 43.1313515 4.19095625 43 3.6901243 43 2.90496232 43L0 43C0 43.2758382.392580992 43.4313861.547420965 43.612513.822159147 43.9243.833806401 44.393709.833806401 44.9101279L.833806401 51 3.64285015 51C4.67877068 51 5.29744543 50.9281023 5.88117843 50.6266851 6.48820593 50.291393 7 49.6906326 7 48.80159M12.3149359 45.8924057C12.3149359 46.7062572 12.0129044 47.3797138 11.1395937 47.3797138 10.8487226 47.3797138 10.533438 47.367283 10.533438 47.0367701L10.533438 44.6858874C10.6548086 44.6478638 10.8605807 44.622271 11.1877234 44.622271 11.5030081 44.622271 11.8064347 44.7231798 11.9759351 44.9015982 12.2061208 45.1304711 12.3149359 45.4858456 12.3149359 45.8924057M16 50.8610676C16 50.8223128 15.9748888 50.809882 15.9260616 50.7974512 15.8542157 50.7835579 15.7935304 50.7718584 15.7202895 50.7586963 15.3457145 50.6709495 14.9453309 50.3652982 14.5442497 49.9207145 14.1689772 49.5265852 13.6967478 48.9043142 13.1505798 48.2432884L12.5451216 47.5062154C13.2119627 47.2641805 14.1334031 46.6675024 14.1334031 45.7022877 14.1334031 45.2832968 13.9757607 44.9015982 13.7330194 44.6595634 13.1505798 44.088478 12.2423925 44 11.382335 44L8 44C8 44.2661653 8.25459935 44.2785961 8.46106897 44.5206309 8.61871131 44.6990494 8.75124248 45.0039695 8.75124248 45.6130784L8.75124248 50.9371148C9.04281106 50.8734984 9.39436743 50.8610676 9.66152236 50.8610676 9.9028686 50.8610676 10.2432645 50.8734984 10.533438 50.9371148L10.533438 47.9771232C10.7036359 47.989554 10.8361671 48.0268463 11.0300811 48.2184268 11.5755515 48.7887809 12.229837 50.161287 13.0912896 50.6570563 13.5879327 50.9488144 14.4117185 51 14.7995466 51 15.1022757 51 15.7202895 50.9751384 15.9511727 50.9371148 15.9867469 50.9232216 16 50.89836 16 50.8610676M20 51L20 44.2065767C20 44.0774663 19.9281585 44 19.7836499 44L17 44C17 44.2442032 17.2873658 44.2692875 17.5317919 44.5260329 17.7324525 44.7178541 17.8893476 45.0255059 17.8893476 45.6799115L17.8893476 51C18.192403 50.9483558 18.5648225 50.9232715 18.9380677 50.9232715 19.2675475 50.9232715 19.71346 50.9483558 20 51M27 45.6154982L26.9509689 44 21.0609386 44 21 45.6273063C21.0245155 45.6273063 21.0609386 45.6405904 21.0854541 45.6405904 21.2192389 45.6405904 21.3159001 45.499631 21.4013542 45.3328413 21.6570161 44.8324723 21.8153164 44.6922509 22.4120943 44.6922509L23.1055335 44.6922509 23.1055335 51C23.3738034 50.9490775 23.714219 50.9232472 24.0056035 50.9232472 24.2129349 50.9232472 24.6507121 50.9490775 24.8944665 51L24.8944665 44.6922509 25.5886061 44.6922509C26.2456222 44.6922509 26.3801074 44.8715867 26.6350689 45.3704797 26.707915 45.5247232 26.8045762 45.6273063 26.9145459 45.6273063 26.9509689 45.6273063 26.9761849 45.6273063 27 45.6154982M31 51L31 44.2065767C31 44.0774663 30.9289452 44 30.7851831 44L28 44C28 44.2442032 28.2866979 44.2692875 28.5312586 44.5260329 28.7312035 44.7178541 28.8898375 45.0255059 28.8898375 45.6799115L28.8898375 51C29.1922335 50.9483558 29.5640319 50.9232715 29.9374828 50.9232715 30.2687965 50.9232715 30.7133021 50.9483558 31 51M38 49.000609C38 46.7163013 34.8931686 46.9024564 34.8931686 45.4444783 34.8931686 44.8888551 35.474564 44.6053593 35.9542151 44.6053593 36.244186 44.6053593 36.4847384 44.6678847 36.6489826 44.7538571 36.9389535 44.9016443 37.1162791 45.1616931 37.2172965 45.3961632 37.3677326 45.7542631 37.4825581 45.9013398 37.7100291 45.9013398 37.747093 45.9013398 37.7848837 45.8892611 37.8234012 45.864393L37.7100291 44.3467316C37.1540698 44.1122615 36.5981105 44 35.903343 44 35.2848837 44 34.7042151 44.1243402 34.2376453 44.3467316 33.5930233 44.6543849 33.1380814 45.2355867 33.1380814 45.8771823 33.1380814 48.1863581 36.1824128 47.8893626 36.1824128 49.45676 36.1824128 50.0365408 35.6388081 50.3335363 35.0959302 50.3335363 34.1359012 50.3335363 33.5050872 49.7040195 33 48.9629517L33 50.4941129C33.7325581 50.865002 34.3757267 51 35.221657 51 36.7623547 51 38 50.2596427 38 49.000609M46 51L46 44 44.2078821 44 44.2078821 46.8337901 41.5369033 46.8337901 41.5369033 44.1932968C41.5369033 44.0900084 41.4751304 44 41.3536903 44L39 44C39 44.2692875 39.2674489 44.2833052 39.4864621 44.5776771 39.6458083 44.8071248 39.7426795 45.09043 39.7426795 45.6666315L39.7426795 51C40.036803 50.9358137 40.3526875 50.9232715 40.6580425 50.9232715 40.9514641 50.9232715 41.2434817 50.9358137 41.5369033 51L41.5369033 47.5907462 44.2078821 47.5907462 44.2078821 51C44.4998997 50.9358137 44.8171881 50.9232715 45.1225431 50.9232715 45.4145608 50.9232715 45.7065784 50.9358137 46 51M56.8445509 47.8765987L54.2431498 47.8765987 55.6243682 44.5976495 56.8445509 47.8765987zM60 51L57.2638113 43.9491877C57.0289971 43.3249222 56.8445509 43 56.2529041 43L54.2310898 43C54.2310898 43.4452126 54.9099938 43.2875907 54.9099938 43.9491877 54.9099938 44.1890771 54.7603086 44.5852057 54.6496409 44.8382302L52 51 52.9364193 51 53.9239159 48.6335983 57.1283143 48.6335983 58.003015 51C58.3116077 50.9405461 58.6187816 50.9156585 58.9642635 50.9156585 59.3466347 50.9156585 59.6417487 50.9405461 60 51zM70 50.886769L69.0825208 45.917669C69.0083234 45.5148279 68.9334126 45.0089175 68.9334126 44.5806719 68.9334126 44.3905019 68.9583829 44.1517005 69.0568371 44L67.7562426 44C67.3346017 44 67.2361474 44.1778308 67.0627824 44.5552675L65.5374554 47.8970344 63.9258026 44.2910618C63.8273484 44.0515346 63.764566 44 63.5048751 44L61.4587396 44C61.4587396 44.2032352 61.6449465 44.3026752 61.8554102 44.4674409 62.0294887 44.6053505 62.2028537 44.8201991 62.2028537 45.210701 62.2028537 45.3384488 62.1657551 45.5772501 62.1407848 45.7028204L61 50.886769 61.83044 50.886769 62.8356718 46.0309 64.9424495 51 67.2361474 45.9307341 68.1778835 50.886769C68.4254459 50.8359602 68.7971463 50.8112816 69.1074911 50.8112816 69.3928656 50.8112816 69.7388823 50.8359602 70 50.886769M77 49.4993676C76.9740854 49.4868255 76.9207317 49.4728078 76.8810976 49.4728078 76.4306402 49.4728078 76.695122 50.2696037 75.3978659 50.2696037L73.7690549 50.2696037 73.7690549 47.6150927 76.2980183 47.6150927 76.2980183 46.8455944 73.7690549 46.8455944 73.7690549 44.7178541 75.8071646 44.7178541C76.1257622 44.7178541 76.4443598 44.8078626 76.6295732 44.9487774L76.5891768 44 71 44C71 44.2567454 71.2652439 44.2958474 71.4908537 44.5260329 71.6760671 44.7178541 71.8208841 45.0129637 71.8208841 45.6408094L71.8208841 50.4223229C71.8208841 50.9483558 71.8612805 51 72.4306402 51L76.523628 51C76.8147866 51 76.8681402 50.7690767 76.9070122 50.3839587L77 49.4993676zM81.3153672 45.8924057C81.3153672 46.7062572 81.0118612 47.3797138 80.1390197 47.3797138 79.8473748 47.3797138 79.5334031 47.367283 79.5334031 47.0367701L79.5334031 44.6858874C79.6541078 44.6478638 79.8606314 44.622271 80.1878598 44.622271 80.5032269 44.622271 80.8053375 44.7231798 80.9748823 44.9015982 81.2058259 45.1304711 81.3153672 45.4858456 81.3153672 45.8924057M85 50.8610676C85 50.8223128 84.97558 50.809882 84.9274376 50.7974512 84.855573 50.7835579 84.7948718 50.7718584 84.7216117 50.7586963 84.3448456 50.6709495 83.9457527 50.3652982 83.5452643 49.9207145 83.1698936 49.5265852 82.6975406 48.9043142 82.1512297 48.2432884L81.5456131 47.5062154C82.2112332 47.2641805 83.1336124 46.6675024 83.1336124 45.7022877 83.1336124 45.2832968 82.9759288 44.9015982 82.733124 44.6595634 82.1512297 44.088478 81.2428048 44 80.3811268 44L77 44C77 44.2661653 77.2539683 44.2785961 77.4597942 44.5206309 77.6174778 44.6990494 77.751439 45.0039695 77.751439 45.6130784L77.751439 50.9371148C78.0416885 50.8734984 78.3926391 50.8610676 78.6612594 50.8610676 78.9026688 50.8610676 79.2417582 50.8734984 79.5334031 50.9371148L79.5334031 47.9771232C79.7029478 47.989554 79.8355137 48.0268463 80.0301762 48.2184268 80.5750916 48.7887809 81.2302459 50.161287 82.0905285 50.6570563 82.5873016 50.9488144 83.4126984 51 83.7999302 51 84.1034362 51 84.7216117 50.9751384 84.95116 50.9371148 84.9881388 50.9232216 85 50.89836 85 50.8610676M89 51L89 44.2065767C89 44.0774663 88.9281585 44 88.7836499 44L86 44C86 44.2442032 86.2873658 44.2692875 86.5317919 44.5260329 86.7324525 44.7178541 86.8893476 45.0255059 86.8893476 45.6799115L86.8893476 51C87.1915772 50.9483558 87.5648225 50.9232715 87.9380677 50.9232715 88.2675475 50.9232715 88.7126342 50.9483558 89 51M96 45.9941943L95.9240691 44.4584437C95.3910927 44.148299 94.6427355 44 93.9454855 44 91.8654174 44 90 45.3389692 90 47.4942962 90 49.7487268 91.7376491 51 93.9199319 51 94.5660745 51 95.518861 50.8374414 95.9627647 50.4053779L95.9627647 49.4129151C95.518861 49.8841923 94.9727428 50.2442453 94.2499392 50.2442453 92.6254563 50.2442453 91.9917255 48.7819311 91.9917255 47.3951925 91.9917255 46.1303728 92.6378681 44.656651 94.0842054 44.656651 94.4529083 44.656651 94.7573619 44.7308006 94.9975663 44.9161744 95.2005354 45.0651864 95.3290338 45.3004685 95.4801655 45.6847627 95.5560964 45.9072112 95.7079581 46.0319821 95.8736919 46.0319821 95.9240691 46.0319821 95.9627647 46.0205745 96 45.9941943M101.069751 48.2301044L98.9614958 48.2301044 100.077008 45.4993149 101.069751 48.2301044zM104 51L101.634916 44.8322968C101.426066 44.2811215 101.290596 44 100.776232 44L98.8020361 44C98.8020361 44.3844208 99.4525753 44.2944029 99.4525753 44.8322968 99.4525753 45.0381575 99.3171051 45.38421 99.2310251 45.6026141L97 51 97.8339885 51 98.6552767 48.9871403 101.327991 48.9871403 102.0759 51C102.381413 50.9358069 102.712327 50.9232634 103.007257 50.9232634 103.338172 50.9232634 103.669086 50.9476125 104 51zM112 51L112 44 111.102814 44 111.1807 48.6789629 107.472879 44.231661C107.341821 44.0649241 107.224243 44 107.003317 44L105 44C105 44.2442032 105.337755 44.3718381 105.493527 44.5393128 105.780357 44.8336847 105.80582 45.1922428 105.80582 45.6799115L105.80582 51 106.691024 51 106.626618 46.0510118 109.866374 49.9995784C110.061089 50.2437816 110.373382 50.5506956 110.595057 50.6790683 110.920081 50.8716273 111.322991 51 111.831497 51L112 51z"/>
    <path fill="#FFB800" d="M56.0007169,7.61219054 L54.8286484,34.8976614 L49.7081071,21.4937128 L52.3762654,35.0469484 L44.0556545,23.786646 L49.9231655,35.3679881 L29.3320372,20.6494437 L47.4736499,35.9404967 L35.8920363,31.5800102 L45.1976148,37 C36.5443802,37 26.182148,30.0806174 23,15.7265943 C23,15.7265943 41.4993266,15.9418286 47.6736543,24.256248 C46.5123387,12.5466351 54.509645,1.50446568 56.0007169,0 C57.490355,1.50446568 65.489095,12.5466351 64.3263457,24.256248 C70.5021071,15.9418286 89,15.7265943 89,15.7265943 C85.817852,30.0806174 75.4570535,37 66.8023852,37 L76.1079637,31.5800102 L64.5263501,35.9404967 L82.6693965,20.6494437 L62.0782682,35.3679881 L67.9450623,23.786646 L59.6244515,35.0469484 L62.2933267,21.4937128 L57.1713516,34.8976614 L56.0007169,7.61219054 Z"/>
  </g>
</svg>
