<svg xmlns="http://www.w3.org/2000/svg" width="68" height="77" viewBox="0 0 68 77" xmlns:xlink="http://www.w3.org/1999/xlink">
  <defs>
    <polygon id="a" points="0 0 68 0 68 77 0 77"/>
  </defs>
  <g fill="none" fill-rule="evenodd">
    <mask id="b" fill="white">
      <use xlink:href="#a"/>
    </mask>
    <path fill="#383F99" d="M7.54185358,75.2074472 L6.97246783,73.1715326 L6.46267582,75.2074472 L7.54185358,75.2074472 Z M5.08906956,76.8554859 L6.50987878,72.1206261 L7.51589195,72.1206261 L9.04349788,76.8554859 L8.04515519,76.8554859 L7.77668833,75.923081 L6.30926618,75.923081 L6.06086059,76.8554859 L5.08906956,76.8554859 Z M45.561481,76.8554859 L45.561481,72.1206261 L46.4866591,72.1206261 L46.4866591,76.1334935 L48.5199268,76.1334935 L48.5199268,76.8554859 L45.561481,76.8554859 Z M41.7150295,76.8554859 L41.7150295,72.1206261 L44.9124402,72.1206261 L44.9124402,72.8495552 L42.6407976,72.8495552 L42.6407976,74.0709883 L44.557828,74.0709883 L44.557828,74.7935588 L42.6407976,74.7935588 L42.6407976,76.1334935 L44.9861949,76.1334935 L44.9861949,76.8554859 L41.7150295,76.8554859 Z M37.1646637,74.3999024 C37.1646637,72.8362599 37.7340495,72.0021245 39.1619391,72.0021245 C40.3626645,72.0021245 41.0524179,72.7975301 41.0524179,73.8472805 L40.0936076,73.8472805 C40.0806268,73.8472805 40.2151553,72.7316317 39.1418779,72.7316317 C38.2910445,72.7316317 38.1364547,73.3946624 38.1364547,74.4126196 C38.1364547,75.502834 38.3040253,76.251417 39.1418779,76.251417 C39.939608,76.251417 40.0877073,75.7849255 40.0936076,75.0889456 L41.0589083,75.0889456 C41.0589083,76.2780076 40.3355228,77 39.17551,77 C38.5660017,77 37.1646637,76.9537555 37.1646637,74.3999024 Z M34.6387151,74.3796704 L33.2780897,72.1206261 L34.3436966,72.1206261 L35.1679783,73.6443827 L35.9792793,72.1206261 L36.9380895,72.1206261 L35.6842608,74.3733118 L37.2189471,76.8554859 L36.1197081,76.8554859 L35.1544075,75.1282534 L34.2829228,76.8554859 L33.2645188,76.8554859 L34.6387151,74.3796704 Z M29.7532083,76.8554859 L29.7532083,72.1206261 L32.9506191,72.1206261 L32.9506191,72.8495552 L30.6783864,72.8495552 L30.6783864,74.0709883 L32.5954168,74.0709883 L32.5954168,74.7935588 L30.6783864,74.7935588 L30.6783864,76.1334935 L33.0249638,76.1334935 L33.0249638,76.8554859 L29.7532083,76.8554859 Z M64.7129036,76.8554859 L64.7129036,72.1206261 L67.9103144,72.1206261 L67.9103144,72.8495552 L65.6374916,72.8495552 L65.6374916,74.0709883 L67.554522,74.0709883 L67.554522,74.7935588 L65.6374916,74.7935588 L65.6374916,76.1334935 L67.984069,76.1334935 L67.984069,76.8554859 L64.7129036,76.8554859 Z M60.2256718,74.3837168 C60.2256718,72.8206524 60.7950576,71.986517 62.2229472,71.986517 C63.4230826,71.986517 64.1128359,72.7813445 64.1128359,73.832251 L63.1540257,73.832251 C63.1410449,73.832251 63.2755733,72.7154461 62.202886,72.7154461 C61.3514625,72.7154461 61.1968728,73.3790548 61.1968728,74.3970121 C61.1968728,75.4866484 61.3644433,76.2358095 62.202886,76.2358095 C63.0006161,76.2358095 63.1481253,75.769896 63.1540257,75.0733381 L64.1199164,75.0733381 C64.1199164,76.261822 63.3959409,76.9843925 62.2365181,76.9843925 C61.6264198,76.9843925 60.2256718,76.938148 60.2256718,74.3837168 Z M56.0181176,76.8554859 L56.0181176,72.1206261 L57.1374179,72.1206261 L58.8066327,75.2531136 L58.7399585,72.1206261 L59.6043628,72.1206261 L59.6043628,76.8554859 L58.7594297,76.8554859 L56.8158477,73.3096881 L56.8831119,76.8554859 L56.0181176,76.8554859 Z M52.1716661,76.8554859 L52.1716661,72.1206261 L55.3690769,72.1206261 L55.3690769,72.8495552 L53.0974342,72.8495552 L53.0974342,74.0709883 L55.0144646,74.0709883 L55.0144646,74.7935588 L53.0974342,74.7935588 L53.0974342,76.1334935 L55.4428315,76.1334935 L55.4428315,76.8554859 L52.1716661,76.8554859 Z M51.820004,76.8554859 L48.8709988,76.8554859 L48.8709988,72.1206261 L49.7961769,72.1206261 L49.7961769,76.1334935 L51.820004,76.1334935 L51.820004,76.8554859 Z M24.1313353,72.1206261 L27.2077885,72.1206261 L27.2077885,72.8495552 L25.0565134,72.8495552 L25.0565134,74.1432454 L26.8862183,74.1432454 L26.8862183,74.8854698 L25.0565134,74.8854698 L25.0565134,76.8554859 L24.1313353,76.8554859 L24.1313353,72.1206261 Z M21.5457929,72.724695 C20.7881854,72.724695 20.5740019,73.1715326 20.5539407,74.0975789 C20.5474503,74.4253369 20.5474503,74.5571337 20.5539407,74.8854698 C20.5740019,75.8115161 20.909143,76.2450584 21.5457929,76.2450584 C22.2296459,76.2450584 22.5382353,75.8115161 22.5582965,74.8854698 C22.5647869,74.5571337 22.5647869,74.4253369 22.5582965,74.0975789 C22.5382353,73.1715326 22.1960138,72.724695 21.5457929,72.724695 Z M19.5886401,73.9923727 C19.6287626,72.7385684 20.3663089,71.9957659 21.5457929,71.9957659 C22.7594992,71.9957659 23.4634134,72.7385684 23.5029458,73.9923727 C23.5165167,74.4386322 23.5165167,74.5831463 23.5029458,75.0299839 C23.4634134,76.2907248 22.7058058,77 21.5457929,77 C20.3727993,77 19.6287626,76.2837881 19.5886401,75.0236252 C19.5750692,74.5767877 19.5750692,74.4386322 19.5886401,73.9923727 Z M14.7444359,75.174498 L14.7444359,76.8554859 L13.8192578,76.8554859 L13.8192578,72.1206261 L13.8121773,72.1206261 L14.7172942,72.1206261 L14.7172942,74.0842836 L16.3800186,72.1206261 L17.4792576,72.1206261 L15.7699203,74.0183852 L17.6403377,76.8554859 L16.5676504,76.8554859 L15.1733928,74.7016478 L14.7444359,75.174498 Z M10.3386292,72.8299013 L10.3386292,74.1039375 L11.2166043,74.1039375 C11.4844812,74.1039375 11.9541507,74.0386172 11.9541507,73.4079577 C11.9541507,73.1056342 11.8066414,72.8299013 11.1292789,72.8299013 L10.3386292,72.8299013 Z M9.50785704,76.8554859 L9.50785704,72.1206261 L11.4384583,72.1206261 C12.3500655,72.1206261 12.9672443,72.5472317 12.9672443,73.3357006 C12.9672443,73.9790774 12.6852066,74.2484516 12.2025562,74.3860291 C12.5182261,74.4721595 12.8527771,74.7276604 12.8869992,75.1941519 C12.9135509,75.6276942 12.9064705,75.8837731 12.9135509,76.3560452 C12.9135509,76.6063436 12.947183,76.7173304 13.027428,76.8554859 C13.027428,76.8554859 12.055637,76.8624226 12.055637,76.8554859 C12.0220049,76.7838069 11.9883728,76.6647273 11.9883728,76.4745468 C11.9883728,75.9629669 11.9948632,75.739259 11.9547407,75.266987 C11.9211086,74.8791111 11.6396609,74.8004955 11.2980294,74.8004955 L10.4330351,74.8004955 L10.4330351,76.8554859 L9.50785704,76.8554859 Z M2.65516673,76.8554859 L1.9842946,76.8554859 L0.804810537,73.1316467 L0.905116836,76.8554859 L0,76.8554859 L0,72.1206261 L1.3075221,72.1206261 L2.3330065,75.5352051 L3.31187797,72.1206261 L4.61881003,72.1206261 L4.61881003,76.8554859 L3.74732531,76.8554859 L3.76797661,73.0992756 L2.65516673,76.8554859 Z M33.9702031,41.3165797 L38.1989987,41.3165797 L38.1989987,21.4013813 L41.6459951,41.2957697 L45.0983019,41.2957697 L48.2083872,21.3591832 L48.2083872,41.2738035 L52.4389529,41.2738035 L52.4389529,15.3658947 L46.2093417,15.3658947 L43.1765512,34.030179 L40.2859597,15.3658947 L33.9702031,15.3658947 L33.9702031,41.3165797 Z M15.60707,21.7441688 L15.60707,35.6828422 C15.60707,40.7396794 19.3555754,41.7576367 21.1900006,41.7576367 C23.2515901,41.7576367 24.5425911,41.3645584 25.4677692,39.0072445 L25.4677692,41.2738035 L29.5909481,41.2738035 L29.5909481,27.2981345 L22.8934376,27.2981345 L22.8934376,30.4762884 L25.368053,30.4762884 L25.368053,34.2429038 C25.368053,36.6395255 24.1643774,37.9661649 22.3352625,37.9661649 C21.2867667,37.9661649 19.8399958,36.8961826 19.8399958,35.0984272 L19.8399958,21.5227732 C19.8399958,19.7244398 21.1994412,18.4746819 22.6851545,18.4746819 C24.1708678,18.4746819 25.3662829,19.4978417 25.3662829,21.295019 L25.3662829,23.6280545 L29.589178,23.6280545 L29.589178,21.1447243 C29.589178,17.8648324 27.6190443,14.8450659 22.597829,14.8450659 C17.3547598,14.8450659 15.60707,18.1232236 15.60707,21.7441688 Z M15.60648,51.3649337 L52.4448532,51.3649337 L52.4448532,45.0300139 L15.60648,45.0300139 L15.60648,51.3649337 Z M0.0165210374,66.603078 L68,66.603078 L68,0 L0.0165210374,0 L0.0165210374,66.603078 Z" mask="url(#b)"/>
  </g>
</svg>
