<svg xmlns="http://www.w3.org/2000/svg" width="139" height="37" viewBox="0 0 139 37" xmlns:xlink="http://www.w3.org/1999/xlink">
  <defs>
    <polygon id="a" points=".138 .001 14.87 .001 14.87 22.145 .138 22.145"/>
    <polygon id="c" points=".644 .77 15.868 .77 15.868 18.487 .644 18.487"/>
  </defs>
  <g fill="none" fill-rule="evenodd">
    <polygon fill="#FF0000" points="0 37 37 37 37 0 0 0"/>
    <g transform="translate(4)">
      <path fill="#FFFFFF" d="M16.2618488,4.05428571 C15.2289419,4.06135714 14.1976047,4.77478571 14.1976047,6.17414286 L14.1976047,20.8222143 C14.1976047,22.9491429 11.3382733,22.7747143 11.3382733,20.8222143 L11.3382733,6.17414286 C11.3382733,3.37542857 7.20115116,3.37542857 7.20115116,6.17414286 L7.20115116,20.9392857 C7.20115116,24.3170714 9.72141279,26.5618571 12.7290872,26.5618571 C15.8191744,26.5618571 18.3308023,24.3170714 18.3308023,20.9392857 L18.3308023,6.17414286 C18.3308023,4.74728571 17.2939709,4.04721429 16.2618488,4.05428571 M26.6843198,4.04407143 C25.8452791,4.04407143 25.2095233,4.60114286 24.8932151,5.27057143 L20.296936,12.8409286 C19.9782733,13.5417857 19.7451628,14.3282857 19.7451628,14.8484286 C19.7451628,15.3143571 19.8095233,15.7252857 19.979843,16.104 L24.9520814,27.9879286 L5.64472674,27.9879286 C4.94931977,27.9879286 4.37556977,27.2894286 4.37556977,26.6443571 L4.37556977,6.17414286 C4.2295814,3.37542857 0.209406977,3.377 0.1215,6.26214286 L0.208622093,27.9879286 C0.208622093,30.3497857 2.03426163,32.2417857 4.37556977,32.2417857 L30.6997849,32.2417857 L24.2833605,15.8156429 C24.1059767,15.2043571 24.0274884,14.6496429 24.4591744,13.9205 L28.7038256,7.01407143 C28.7634767,6.87028571 28.8505988,6.26135714 28.8505988,6.08614286 C28.7658314,4.83214286 27.7839419,3.98907143 26.6843198,4.04407143"/>
      <path fill="#000000" d="M39.7307355,4.6981 L39.7307355,14.3608143 C39.7307355,16.7761 39.4850669,18.1188857 37.519718,18.1188857 C37.1523924,18.1188857 36.9067238,18.1188857 36.5393983,17.9861 L36.5393983,22.1448857 C37.2740494,22.4151714 37.7653866,22.4151714 38.3807355,22.4151714 C43.905532,22.4151714 44.1512006,18.2540286 44.1512006,15.8363857 L44.1512006,8.85924286 L47.3425378,8.85924286 L47.3425378,22.1448857 L51.7606483,22.1448857 L51.7606483,4.6981 L39.7307355,4.6981"/>
      <polygon fill="#000000" points="53.235 4.698 59.251 17.315 57.042 22.145 61.83 22.145 68.95 4.698 64.162 4.698 61.584 12.079 58.514 4.698"/>
      <polygon fill="#000000" points="70.3 22.145 74.721 22.145 74.721 14.63 79.262 22.145 84.909 22.145 78.649 13.154 84.787 4.698 79.508 4.698 74.721 12.078 74.721 4.698 70.3 4.698"/>
      <path fill="#000000" d="M92.1537471,18.5221143 C90.1876134,18.5221143 88.2246192,16.7762571 88.2246192,13.4212571 C88.2246192,10.0670429 90.1876134,8.45554286 92.1537471,8.45554286 C94.2407529,8.45554286 96.2037471,10.0670429 96.2037471,13.4212571 C96.2037471,16.7762571 94.2407529,18.5221143 92.1537471,18.5221143 M92.1537471,22.6832571 C98.0458692,22.6832571 100.745869,18.1190429 100.745869,13.4212571 C100.745869,8.8594 98.0458692,4.29518571 92.1537471,4.29518571 C86.383282,4.29518571 83.6824971,8.8594 83.6824971,13.4212571 C83.6824971,18.1190429 86.383282,22.6832571 92.1537471,22.6832571"/>
      <g transform="translate(102.82)">
        <mask id="b" fill="white">
          <use xlink:href="#a"/>
        </mask>
        <path fill="#000000" d="M7.6254593,3.75854286 C9.46679651,3.75854286 11.3089186,3.08754286 12.169936,1.07297143 L9.59080814,0.000471428571 C9.22112791,1.34325714 8.11679651,1.47682857 7.6254593,1.47682857 C7.25813372,1.47682857 6.0297907,1.34325714 5.78412209,0.000471428571 L3.20734884,1.07297143 C3.94278488,3.08754286 5.90813372,3.75854286 7.6254593,3.75854286 Z M0.137668605,4.69825714 L0.137668605,22.1450429 L4.43412209,22.1450429 L10.5719128,11.6777571 L10.5719128,22.1450429 L14.869936,22.1450429 L14.869936,4.69825714 L10.5719128,4.69825714 L4.43412209,15.1679 L4.43412209,4.69825714 L0.137668605,4.69825714 Z" mask="url(#b)"/>
      </g>
      <g transform="translate(118.517 3.929)">
        <mask id="d" fill="white">
          <use xlink:href="#c"/>
        </mask>
        <path fill="#000000" d="M3.83839535,0.769528571 L3.83839535,10.4322429 C3.83839535,12.8475286 3.59037209,14.1903143 1.62737791,14.1903143 C1.26005233,14.1903143 1.01359884,14.1903143 0.643918605,14.0575286 L0.643918605,18.2163143 C1.38092442,18.4866 1.87226163,18.4866 2.4860407,18.4866 C8.01005233,18.4866 8.25650581,14.3254571 8.25650581,11.9078143 L8.25650581,4.93067143 L11.447843,4.93067143 L11.447843,18.2163143 L15.8683081,18.2163143 L15.8683081,0.769528571 L3.83839535,0.769528571" mask="url(#d)"/>
      </g>
      <polygon fill="#000000" points="36.575 31.936 37.196 31.936 37.196 28.699 40.829 28.699 40.829 31.936 41.451 31.936 41.451 25.59 40.829 25.59 40.829 28.189 37.196 28.189 37.196 25.59 36.575 25.59"/>
      <polygon fill="#000000" points="43.033 31.936 46.44 31.936 46.44 31.427 43.655 31.427 43.655 28.637 46.329 28.637 46.329 28.127 43.655 28.127 43.655 26.103 46.44 26.103 46.44 25.59 43.033 25.59"/>
      <path fill="#000000" d="M50.5389767,30.5514786 C49.0429884,30.4988357 48.0312733,30.10205 48.0312733,28.5769786 C48.0312733,27.6003357 48.4802267,26.6386214 50.5389767,26.6119071 L50.5389767,30.5514786 Z M51.1543256,26.6119071 C53.2107209,26.6386214 53.6620291,27.6003357 53.6620291,28.5769786 C53.6620291,30.10205 52.650314,30.4988357 51.1543256,30.5514786 L51.1543256,26.6119071 Z M50.5389767,31.9366929 L51.1543256,31.9366929 L51.1543256,31.0637643 L51.4133372,31.0637643 C53.4626686,31.0637643 54.310343,29.84905 54.310343,28.5769786 C54.310343,27.08805 53.2107209,26.1027643 51.4133372,26.1027643 L51.1543256,26.1027643 L51.1543256,25.3406214 L50.5389767,25.3406214 L50.5389767,26.1027643 L50.2885988,26.1027643 C48.4802267,26.1027643 47.3829593,27.08805 47.3829593,28.5769786 C47.3829593,29.84905 48.2306337,31.0637643 50.2885988,31.0637643 L50.5389767,31.0637643 L50.5389767,31.9366929 Z"/>
      <polygon fill="#000000" points="56.557 31.936 57.155 31.936 57.155 26.103 58.841 26.103 58.841 25.59 54.873 25.59 54.873 26.103 56.557 26.103"/>
      <path fill="#000000" d="M62.498093,28.6370857 L61.5994012,28.6370857 C61.0907965,28.6370857 60.0790814,28.5773714 60.0790814,27.3658 C60.0790814,26.1888 61.1504477,26.1023714 61.6590523,26.1023714 L62.498093,26.1023714 L62.498093,28.6370857 Z M59.5759709,31.9363 L60.2760872,31.9363 L61.9628023,29.1493714 L62.498093,29.1493714 L62.498093,31.9363 L63.1220756,31.9363 L63.1220756,25.5908714 L61.6590523,25.5908714 C59.7400116,25.5908714 59.4637326,26.8645143 59.4637326,27.4270857 C59.4637326,28.4995857 60.3027733,29.1493714 61.2893721,29.1132286 L59.5759709,31.9363 Z"/>
      <polygon fill="#000000" points="64.714 31.936 65.335 31.936 65.335 28.699 68.968 28.699 68.968 31.936 69.59 31.936 69.59 25.59 68.968 25.59 68.968 28.189 65.335 28.189 65.335 25.59 64.714 25.59"/>
      <path fill="#000000" d="M72.2195058 29.3751857L73.3175581 26.7776143 74.4415116 29.3751857 72.2195058 29.3751857zM70.4974709 31.9366143L71.1214535 31.9366143 71.9934593 29.8756857 74.6652035 29.8756857 75.539564 31.9366143 76.1611919 31.9366143 73.3175581 25.4269714 70.4974709 31.9366143zM79.8027384 28.6370857L78.9040465 28.6370857C78.3923023 28.6370857 77.3813721 28.5773714 77.3813721 27.3658 77.3813721 26.1888 78.4543081 26.1023714 78.9636977 26.1023714L79.8027384 26.1023714 79.8027384 28.6370857zM76.8806163 31.9363L77.5807326 31.9363 79.2666628 29.1493714 79.8027384 29.1493714 79.8027384 31.9363 80.4243663 31.9363 80.4243663 25.5908714 78.9636977 25.5908714C77.044657 25.5908714 76.7683779 26.8645143 76.7683779 27.4270857 76.7683779 28.4995857 77.6074186 29.1493714 78.5924477 29.1132286L76.8806163 31.9363z"/>
      <polygon fill="#000000" points="84.119 31.936 84.74 31.936 84.74 28.863 87.585 31.936 88.397 31.936 85.328 28.664 88.346 25.59 87.585 25.59 84.74 28.551 84.74 25.59 84.119 25.59"/>
      <path fill="#000000" d="M92.4101686,31.5996214 C90.8631628,31.5996214 89.6528721,30.4383357 89.6528721,28.77655 C89.6528721,27.1147643 90.8631628,25.9291214 92.4101686,25.9291214 C93.9595291,25.9291214 95.194936,27.1147643 95.194936,28.77655 C95.194936,30.4383357 93.9595291,31.5996214 92.4101686,31.5996214 M92.4101686,32.1362643 C94.2962442,32.1362643 95.84325,30.7777643 95.84325,28.77655 C95.84325,26.7776929 94.2962442,25.42705 92.4101686,25.42705 C90.551564,25.42705 89.0037733,26.7776929 89.0037733,28.77655 C89.0037733,30.7777643 90.551564,32.1362643 92.4101686,32.1362643"/>
      <polygon fill="#000000" points="96.7 31.936 97.297 31.936 97.884 27.253 100.219 32.222 102.528 27.253 103.152 31.936 103.712 31.936 102.84 25.34 100.219 31.01 97.572 25.34"/>
      <polygon fill="#000000" points="104.881 25.59 104.881 31.937 105.502 31.937 105.502 26.103 109.135 26.103 109.135 31.937 109.757 31.937 109.757 25.59"/>
      <path fill="#000000" d="M112.386558,29.3751857 L113.48461,26.7776143 L114.608564,29.3751857 L112.386558,29.3751857 Z M110.666878,31.9366143 L111.288506,31.9366143 L112.160512,29.8756857 L114.83461,29.8756857 L115.706616,31.9366143 L116.329029,31.9366143 L113.48461,25.4269714 L110.666878,31.9366143 Z"/>
      <polygon fill="#000000" points="117.212 31.936 117.833 31.936 117.833 28.699 121.466 28.699 121.466 31.936 122.091 31.936 122.091 25.59 121.466 25.59 121.466 28.189 117.833 28.189 117.833 25.59 117.212 25.59"/>
      <polygon fill="#000000" points="123.671 25.59 123.671 32.222 128.013 26.916 128.013 31.937 128.626 31.937 128.626 25.341 124.295 30.611 124.295 25.59"/>
      <path fill="#000000" d="M132.949099,28.6370857 L132.050407,28.6370857 C131.541017,28.6370857 130.530087,28.5773714 130.530087,27.3658 C130.530087,26.1888 131.600669,26.1023714 132.112413,26.1023714 L132.949099,26.1023714 L132.949099,28.6370857 Z M130.027762,31.9363 L130.727093,31.9363 L132.413808,29.1493714 L132.949099,29.1493714 L132.949099,31.9363 L133.573081,31.9363 L133.573081,25.5908714 L132.112413,25.5908714 C130.191017,25.5908714 129.914738,26.8645143 129.914738,27.4270857 C129.914738,28.4995857 130.752994,29.1493714 131.740378,29.1132286 L130.027762,31.9363 Z"/>
    </g>
  </g>
</svg>
