<svg xmlns="http://www.w3.org/2000/svg" width="128" height="41" viewBox="0 0 128 41" xmlns:xlink="http://www.w3.org/1999/xlink">
  <defs>
    <polygon id="a" points=".09 .067 8.812 .067 8.812 4.511 .09 4.511"/>
    <polygon id="c" points="0 .448 54.721 .448 54.721 41 0 41"/>
  </defs>
  <g fill="none" fill-rule="evenodd">
    <g transform="translate(119 36)">
      <mask id="b" fill="white">
        <use xlink:href="#a"/>
      </mask>
      <path fill="#EC2024" d="M3.0171,0.0665714286 L4.3386,0.0665714286 L4.3386,4.51085714 L3.48285,4.51085714 L3.48285,1.50728571 L3.48885,0.775142857 L2.65635,4.51085714 L1.76535,4.51085714 L0.93885,0.775142857 L0.94485,1.50728571 L0.94485,4.51085714 L0.08985,4.51085714 L0.08985,0.0665714286 L1.42485,0.0665714286 L2.22435,3.55442857 L3.0171,0.0665714286 Z M6.1101,0.831571429 L6.1101,2.02371429 L7.15035,2.02371429 C7.35735,2.02371429 7.5126,2.00228571 7.61535,1.95657143 C7.79835,1.878 7.88985,1.70942857 7.88985,1.46157143 C7.88985,1.19157143 7.8021,1.01157143 7.6251,0.910857143 C7.52535,0.865142857 7.3761,0.831571429 7.1781,0.831571429 L6.1101,0.831571429 Z M8.0781,0.178714286 C8.2446,0.246571429 8.3871,0.348714286 8.5011,0.494428571 C8.7846,1.00085714 8.81235,1.158 8.81235,1.32657143 C8.81235,1.54014286 8.7591,1.75442857 8.6541,1.95657143 C8.5476,2.15942857 8.37435,2.30585714 8.13135,2.38442857 C8.33535,2.47442857 8.4771,2.58657143 8.56185,2.74442857 C8.64735,2.89014286 8.6901,3.11585714 8.6901,3.43085714 C8.6901,3.93728571 8.6406,4.43157143 8.65635,4.49942857 L7.7601,4.51085714 L7.7706,3.89157143 L7.76535,3.47514286 C7.7616,3.19442857 7.7091,3.003 7.61085,2.90157143 C7.5126,2.81228571 7.32885,2.76657143 7.0581,2.76657143 L6.1101,2.76657143 L6.1101,4.51085714 L5.2131,4.51085714 L5.2131,0.0665714286 L7.36935,0.0665714286 C7.6761,0.0665714286 7.9131,0.111571429 8.0781,0.178714286 Z" mask="url(#b)"/>
    </g>
    <mask id="d" fill="white">
      <use xlink:href="#c"/>
    </mask>
    <path fill="#EC2024" d="M48.4855067,35.8226351 C43.78704,32.8540912 37.41144,32.3326 27.12864,35.1313895 C16.16604,37.6582842 12.5111067,39.2781439 7.71144,36.0261965 C5.86710667,34.4293544 5.20637333,31.8571439 5.69990667,28.1527579 C6.84537333,22.1135298 9.93930667,16.3023193 15.43564,9.85596842 C18.5039067,6.5026 21.34924,3.62468772 25.1075733,2.46949474 C27.9873733,1.74444211 27.7175067,3.96419649 27.3699067,4.28212632 C27.0017733,4.28212632 26.3843067,4.33823158 25.9069067,4.64465263 C25.5189733,4.93884561 24.45564,5.89119649 24.39844,7.17082807 C24.3163067,9.13091579 26.3843067,8.72307368 27.27604,7.64700351 C28.2367067,6.43426667 29.6579067,4.11237193 28.5403067,1.94800351 C28.0717067,1.17763509 27.26284,0.645354386 26.25744,0.464091228 C22.81664,0.271319298 19.6119733,1.88038947 16.6551733,3.65849474 C10.18644,8.06635439 5.01277333,14.1724772 2.08457333,20.8561965 C0.397173333,24.8900211 -1.12962667,30.6681439 1.15837333,35.3694772 C2.92864,38.632214 6.60337333,40.3657228 10.9879733,40.0031965 C14.06284,39.685986 17.7801067,38.7120561 20.2815067,38.1222316 C22.7821733,37.5331263 35.58324,33.2166175 39.78964,40.7282491 C39.78964,40.7282491 41.1881067,38.0661263 44.68244,38.0093018 C47.5563733,37.7489158 51.7019067,38.824986 54.72104,41.0001439 C53.71564,39.5162316 50.86444,37.3295649 48.4855067,35.8226351" mask="url(#d)"/>
    <path fill="#EC2024" d="M27.0370409 16.8274286C27.0298399 16.8496371 26.2787732 18.5654225 26.2787732 18.5654225 26.1700378 18.6549729 25.9979333 18.6098395 25.8013454 18.5654225L25.4643375 18.5088267C24.405067 18.1814304 23.6064735 17.482221 23.3601985 16.646895 23.0203103 15.0213764 24.4158685 13.7468952 25.0308359 13.2840988 25.6198796 12.8778983 26.5372899 12.6636937 27.0701656 13.0813568 27.3985323 13.4646324 27.52311 13.9610998 27.52311 14.5027005 27.52311 15.2362973 27.2955577 16.0601609 27.0370409 16.8274286M25.4232917 20.0884955C25.4232917 20.0884955 25.3894468 20.1895083 25.3721644 20.2238957 25.3678438 20.2238957 23.6648018 22.9884953 23.6648018 22.9884953 22.6364957 24.3532432 21.3525533 26.0683122 19.7481654 26.8928922 19.2721777 27.0505009 18.6154444 27.1515137 18.2805969 26.7345671 17.570576 25.8877786 17.936388 24.7150268 18.2330701 23.7672254L18.338205 23.4283668C19.1908062 21.1265636 20.5445985 19.0955608 21.8616656 17.2107042 21.8775079 17.1999582 21.9142331 17.1884957 21.9271949 17.1884957 21.9307955 17.1999582 21.9365563 17.1999582 21.9387166 17.2221667 22.7646739 18.8018355 24.3143341 19.5354323 25.4729787 19.8735746 25.4801797 19.8735746 25.4873808 19.885037 25.4873808 19.9079619 25.4873808 19.9416329 25.467938 19.9867663 25.4232917 20.0884955M46.7332793 18.2716972C47.4958676 17.2221667 49.7130626 14.4124337 50.2545796 13.9388913 52.0728379 12.34776 52.7994211 13.0476858 52.8627901 13.5441532 51.1647889 16.5680907 49.1621844 20.0318997 47.2791168 23.146104 47.2827173 23.1353579 46.6900731 24.0373094 46.6900731 24.0373094 45.8576349 25.3010445 45.0201559 26.3849624 43.6541218 27.1407677 43.4596942 27.1973635 43.1378085 27.219572 42.9239381 27.0612469 42.6668615 26.8928922 42.5653271 26.609913 42.5948513 26.3169041 42.676943 25.3461779 43.6699641 22.3788362 46.7332793 18.2716972M27.8478761 11.4107047C25.4967421 9.87688567 20.7714307 12.8105564 16.986573 17.8425718 13.5257613 22.3566277 12.031549 27.6028477 13.65754 30.029305 16.0770838 32.8841713 20.5683619 28.7311826 22.4780732 26.5089001L22.7243482 26.2488458C24.0234128 24.8618894 25.0272354 23.1912374 25.9979333 21.5886436 25.9979333 21.5886436 26.8908602 20.1221665 26.9333462 20.0541082 27.4856647 19.9530953 28.149599 19.7947702 28.8985054 19.5805657 28.8877039 19.6142367 26.0332183 24.3876305 26.3248597 26.7567756 26.4155926 27.4789099 26.3464628 30.1195718 28.9373909 30.9205104 32.3910016 31.4964985 35.1482733 28.8329118 37.581499 26.4630503 37.581499 26.4630503 37.9955579 26.0683122 38.2303112 25.8433616 38.1712628 26.0797747 38.0934918 26.3957084 38.0934918 26.3957084 37.0824681 29.8931884 38.4456218 30.6275016 39.2982229 30.8983019 41.874749 31.6433612 44.9524663 27.9187814 44.9625477 27.9187814 44.8826163 29.0929661 44.6493032 30.0636923 45.8921998 30.8417061 47.0652464 31.2593691 48.2526951 30.6382476 49.1549833 30.040051 52.4055252 27.7611728 55.0245373 24.173426 57.1401978 21.1265636L55.7907261 21.1265636C55.7748839 21.1487721 52.4616931 25.8877786 50.3100274 26.9265631 50.3064269 26.9265631 49.9154114 27.1178428 49.6892993 26.9602341 49.4098996 26.7231047 49.5200752 26.19225 49.6928998 25.8433616 49.7037013 25.8204367 58 11.4673006 58 11.4673006L54.0826434 11.4673006C54.0826434 11.4673006 53.6549027 12.1894349 53.6203378 12.2345683 53.5929739 12.2123598 53.5310451 12.111347 53.4871188 12.0540347 51.0596539 8.71416343 45.5638331 13.8593705 41.4261253 19.8169787 39.833259 22.1080359 37.8054509 24.6921019 35.702032 26.5533171 35.702032 26.5533171 32.5868694 29.3974374 31.2554003 27.3549722 30.7686111 26.4974377 30.9183924 25.2451651 31.1927514 24.4213015 32.7424115 20.0318997 35.413271 16.0486984 38.4528228 13.645166 39.3104647 12.9796275 40.2422771 12.7876315 40.7053029 13.0698943 41.1460055 13.3292322 41.2172956 13.9725622 40.938616 14.4124337 40.2307554 14.3902252 39.6640349 14.6044298 39.2031694 15.0786886 38.2944003 16.0257735 37.9789955 16.9406203 38.2677565 17.7974384 39.6705158 19.7833078 42.4681133 15.8574188 42.3327341 13.4646324 42.2837671 12.6070979 41.8243418 11.7946968 41.1380843 11.3992423 40.114819 10.7902996 38.5543573 10.9486247 37.5440537 11.4336296 36.1924217 11.9415594 34.0515575 13.7125079 32.8029001 15.0894347 31.2301967 16.8159661 28.5326934 18.7344936 27.6894536 18.5195727 27.9659729 17.7859759 30.2443766 13.1486986 27.8478761 11.4107047M87.6781509 4.73920903C87.0752703 11.6004551 81.7058192 15.6284684 80.377575 15.9497478 79.5722674 16.1100232 78.1985504 15.7552317 79.4248477 12.8746448 81.2312891 8.99597911 84.3139012 5.70304726 87.623877 4.01651248 87.703821 4.30282271 87.7008873 4.48641094 87.6781509 4.73920903M77.2150189 22.0307438C76.8307009 21.2053253 75.9175789 20.6771449 74.9443154 20.7346983 71.7832262 21.0217371 68.6910795 23.6036288 67.0687294 27.3089056 66.2172155 29.2147263 65.75222 30.7868827 65.4471126 33.2879082 66.4299106 32.1637945 68.4343786 30.3155272 70.7094827 29.3065205 70.7094827 29.3065205 71.0189907 26.908217 72.597335 24.7736395 73.1943482 23.889939 74.3905747 22.4671302 75.7327541 22.845963 76.9055109 23.2364523 76.492589 26.4601743 74.9347808 29.5819028 73.7818267 31.8767558 72.0164574 34.1716087 70.230552 35.754693 68.6529411 37.0857077 66.3169622 38.6921047 64.2736224 37.4528842 62.9864503 36.6959469 62.3300293 35.1121341 62.4686478 33.0700793 63.0839967 27.2753935 65.7390183 22.3410954 69.5396596 16.7183414 73.45765 11.4977331 77.7768274 6.13870506 83.5958719 3.28215954 84.7825638 2.68476925 85.8819775 2.54707807 86.8317711 2.91498307 86.8317711 2.91498307 81.3684408 5.89756337 78.7654929 11.4175954 78.1032043 12.8170914 77.1820145 14.7105272 78.1098052 16.3854056 78.5946034 17.2581782 79.4556518 17.3266596 80.148011 17.2807625 83.3399043 16.5464096 85.4015799 13.585685 87.0862718 10.8777585 88.0632024 8.82404727 88.9315851 6.78199241 88.9315851 4.50972373 88.9315851 4.23434138 88.9169165 3.86716491 88.8934467 3.59178255 90.4182505 2.78821976 93.544135 4.21102859 93.544135 4.21102859 95.9879283 5.01459138 101.19089 8.97339484 102.945258 9.73033205 103.801173 8.74390955 105.207161 7.25189087 106 6.50588153L104.853647 5.80576925C103.017868 4.69331197 101.077942 3.63695109 99.1666199 2.59297513 94.8298402.241297255 91.2991016 1.06671579 89.5021947 1.71000314 88.7959003 1.9620727 88.1512141 2.1799016 88.1512141 2.1799016 86.8171025.734508507 84.6307436.872199684 83.0186614 1.26268895 77.2238201 2.91498307 71.8433676 6.94226785 66.0749298 13.9302772 61.8342297 19.4036836 59.2034113 24.1310807 57.8010905 28.8009243 56.7207461 31.9459656 56.3914354 36.5699122 59.0295881 39.3120793 61.2731547 41.6411729 64.2464854 41.1363053 66.3470329 40.2992303 70.8972411 38.0728587 74.9868544 33.2762518 77.0250602 27.7569483 77.5157258 26.1163106 78.0621322 23.7981449 77.2150189 22.0307438M119.187057 5.77737551C116.345863 7.43658822 113.401523 8.51133082 109.836866 8.13750731 108.848688 9.28271268 107.887197 10.4620369 107 11.6769633 112.002925 12.9853456 117.308075 10.0763459 120.265398 7.3075301 123.395111 4.51572115 125 1 125 1 125 1 122.653617 3.75620671 119.187057 5.77737551"/>
    <polygon fill="#EC2024" points="65 11 61.163 11 59 15 62.835 15"/>
    <path fill="#EC2024" d="M104.054261,35.000633 C104.052814,35.000633 103.669397,35.3397076 103.669397,35.3397076 C103.121762,35.8243048 102.557489,36.344028 101.877467,36.0845248 C101.689375,36.01714 101.557711,35.7683897 101.525881,35.5769882 C101.49405,34.1877142 102.126326,32.9002343 102.738346,31.6471637 L102.894606,31.3195589 C104.655429,28.4069582 106.701283,24.9746343 109.707125,22.5917929 C110.214248,22.2312125 110.763329,21.9258303 111.343519,22.1631109 C111.477353,22.2871276 111.63289,22.5014686 111.63289,22.7158096 C111.63289,22.7839113 111.572122,22.9645599 111.536674,23.0211918 C110.697498,24.3645868 109.896663,25.7760834 109.120425,27.1302312 C107.600503,29.8069851 106.024878,32.5726295 104.054261,35.000633 M87.7691788,28.1359853 C87.6534304,28.2148398 85.6234921,27.5374075 85.2313943,25.6742893 C84.8986175,24.0713912 86.0134197,22.8176037 87.0920504,22.1853335 C87.5543208,21.8240363 88.2517051,21.7000196 88.7631685,21.8799513 C89.2377371,22.1968033 89.3657838,22.7616887 89.3657838,23.3710193 C89.3657838,23.7437863 89.3165907,24.1280231 89.2724616,24.4771337 C89.2724616,24.4771337 89.2645039,24.5452354 89.2630571,24.5567052 C88.9244929,25.8097758 88.4057952,27.0406238 87.7691788,28.1359853 M80.01331,35.7117578 C79.8056863,35.4070925 79.7376841,35.0565481 79.7304498,34.6959677 C79.6906613,32.4823052 82.0946116,28.5417278 83.7910497,26.3402519 L83.7946668,26.3402519 C84.5057963,27.9775593 86.1161464,28.8922722 87.0884333,29.3102013 C85.8810324,31.9747686 81.740132,37.6996095 80.01331,35.7117578 M109.317197,36.1411567 C108.915695,36.4121296 108.350698,36.185602 108.561939,35.5655184 C109.087871,33.9841261 111.178577,30.7324508 111.178577,30.7324508 L117,20.4691716 L113.012466,20.4691716 C112.822928,20.8075293 112.417809,21.5079012 112.417809,21.5079012 C112.233335,21.2032358 111.681359,20.5365564 111.454203,20.390317 C110.479746,19.7809863 109.049529,20.0741819 108.063497,20.6268807 C103.775741,23.1115162 100.647639,28.0227215 98.1800274,31.850035 C98.1800274,31.850035 95.5829218,36.1067474 94.1418538,36.4228825 C93.0162002,36.5132069 93.1319486,35.0121028 93.1804183,34.6615584 C93.6159218,32.1331945 94.6272738,29.7281305 95.6451366,27.5481604 C97.7148634,26.1259109 100.079749,24.2627927 102.227606,22.2197428 C106.888651,17.8046044 110.81831,12.8030747 111.392712,11.6847737 C111.392712,11.6847737 110.770564,11.8087904 110.036285,11.83173 C106.450977,16.7880974 99.1118023,23.9925366 96.8879854,25.0649586 C97.873294,22.7158096 104.240905,11.5041251 109.658655,6.14129825 L110.5123,5.32766258 C111.830385,4.0523693 113.19694,2.74266677 114.261103,2.52832574 C114.373957,2.51685599 114.518643,2.52832574 114.643796,2.78782892 C114.690095,3.78139637 114.318253,4.51546062 113.889984,5.35060209 L113.290263,6.56998031 C113.290263,6.56998031 114.139567,6.41227119 114.698053,6.23162256 C115.345521,5.0237141 116.063161,3.66813254 115.798387,2.05448153 C115.709405,1.53404144 115.331052,1.13905179 114.834781,1.04872747 C113.218643,0.744062133 111.456373,1.92974795 110.039178,2.88962299 L109.982028,2.92331539 C102.695663,8.5800547 96.5414636,16.7321824 91.1635018,27.8650123 C90.7728508,28.1582079 89.2673977,28.5080354 89.0105808,28.3388565 C89.5415768,27.2549648 90.2107474,25.798306 90.5456945,24.2176306 C90.6035687,23.766009 90.6571023,23.3036345 90.6571023,22.852013 C90.6571023,21.8799513 90.4219883,20.9659553 89.5430236,20.3336851 C88.5135859,19.8261485 87.2403531,20.063429 86.3816444,20.4469489 C82.536626,22.0269075 79.6624476,25.9345094 77.5883802,29.1517754 C76.4735781,31.1955422 75.3616697,33.3855483 75.0534895,35.8924064 C74.8364611,37.8566018 75.2784755,39.121859 76.4048525,39.7541292 C77.5645071,40.3405204 79.0229375,39.7319066 79.5958922,39.4372773 C83.4915506,37.4049802 86.2138092,33.3296333 88.3594958,29.6033969 C88.4448603,29.5919272 89.6160898,29.5582348 90.5022888,29.3331408 C90.5138636,29.3331408 90.5189276,29.3331408 90.5384602,29.3438937 C90.4878202,29.5137895 90.0298905,30.8679373 90.0298905,30.8679373 C88.6691229,34.8199844 88.0404642,37.5074912 89.3259953,39.0996364 C91.1613315,41.3462744 94.199728,39.020065 96.6716806,35.9490383 C96.141408,39.6293956 98.0664492,40.2057508 99.5335607,39.9233081 C101.219147,39.4716865 103.097889,37.6874229 103.968896,36.7734269 C103.689653,37.8458489 103.766336,39.7648821 105.29928,39.9570005 C106.349697,40.1498357 107.136786,39.6186428 108.047582,39.1333288 C111.311688,37.3720047 115.220368,31.4665151 116.234613,29.8406775 L114.90423,29.8406775 C113.461715,31.9518291 111.626379,34.7977618 109.317197,36.1411567"/>
  </g>
</svg>
