<svg xmlns="http://www.w3.org/2000/svg" width="20" height="20" viewBox="0 0 20 20">
  <g fill="none" fill-rule="evenodd">
    <circle cx="10" cy="10" r="10" fill="#FF0000"/>
    <path fill="#FFFFFF" d="M13.3422703,10.9337037 C13.125974,10.7085185 12.8650481,10.5881481 12.5885666,10.5881481 C12.3143074,10.5881481 12.0511592,10.7061111 11.825974,10.9314815 L11.1213444,11.6338889 C11.0633814,11.6025926 11.0054185,11.5737037 10.9496777,11.5446296 C10.8693074,11.5046296 10.7935666,11.4666667 10.7287518,11.4264815 C10.0687518,11.0072222 9.46893698,10.4609259 8.89356661,9.75407407 C8.61486291,9.40185185 8.42764069,9.105 8.29171476,8.80407407 C8.47449254,8.63703704 8.64393698,8.46296296 8.80893698,8.29574074 C8.87134439,8.23333333 8.9337518,8.1687037 8.99634439,8.10611111 C9.46449254,7.63796296 9.46449254,7.03148148 8.99634439,6.56296296 L8.3874555,5.95425926 C8.31838143,5.88518519 8.24689994,5.81388889 8.18023328,5.74259259 C8.04634439,5.60425926 7.90578883,5.46148148 7.76097402,5.32777778 C7.54467772,5.1137037 7.28597402,5 7.01393698,5 C6.74171476,5 6.4787518,5.1137037 6.25578883,5.32777778 L6.25134439,5.33222222 L5.49301106,6.09703704 C5.20764069,6.38240741 5.04486291,6.73037037 5.00912217,7.13388889 C4.95578883,7.78518519 5.1474555,8.39166667 5.29467772,8.78851852 C5.65578883,9.76296296 6.19560365,10.6661111 7.00060365,11.6338889 C7.97727032,12.8001852 9.15227032,13.7211111 10.4946777,14.37 C11.0076407,14.612963 11.6922703,14.9005556 12.4568999,14.9496296 C12.503937,14.9518519 12.5530111,14.9540741 12.5976407,14.9540741 C13.1126407,14.9540741 13.5452333,14.7690741 13.8841222,14.4011111 C13.8863444,14.3966667 13.8907888,14.3944444 13.8931962,14.39 C14.0091222,14.2496296 14.1428259,14.1224074 14.2833814,13.9862963 C14.3791222,13.895 14.4772703,13.7990741 14.5731962,13.6987037 C14.793937,13.4690741 14.9098629,13.2014815 14.9098629,12.9272222 C14.9098629,12.6507407 14.7917148,12.3851852 14.5665296,12.1622222 L13.3422703,10.9337037 Z"/>
  </g>
</svg>
