<svg xmlns="http://www.w3.org/2000/svg" width="74" height="80" viewBox="0 0 74 80" xmlns:xlink="http://www.w3.org/1999/xlink">
  <defs>
    <polygon id="a" points=".001 .529 73.644 .529 73.644 79.058 .001 79.058"/>
  </defs>
  <g fill="none" fill-rule="evenodd">
    <path fill="#FF0000" d="M11.9091291,15.4277647 C11.8117114,19.4145882 11.7461418,24.0414118 11.7461418,25.9143529 C11.7461418,45.0691765 19.0187494,56.8847059 36.821838,66.5863529 C54.6249266,56.8847059 61.8994076,45.0691765 61.8994076,25.9143529 C61.8994076,24.0432941 61.8319646,19.4145882 61.7345468,15.4277647 C45.1978886,11.7985882 28.4420405,11.7967059 11.9091291,15.4277647 M36.821838,68.5967059 C36.6700911,68.5967059 36.5183443,68.5590588 36.3815848,68.4856471 C17.8010278,58.4941176 9.87272405,45.7618824 9.87272405,25.9143529 C9.87272405,23.872 9.94578734,18.8555294 10.0544456,14.6428235 C10.0675595,14.2117647 10.3673063,13.8447059 10.7850785,13.7505882 C28.0617367,9.84658824 45.5819392,9.84658824 62.8585975,13.7487059 C63.2763696,13.8447059 63.5779899,14.2117647 63.5892304,14.6428235 C63.6978886,18.8555294 63.7728253,23.872 63.7728253,25.9143529 C63.7728253,45.7618824 55.8445215,58.4922353 37.2639646,68.4856471 C37.1253316,68.5590588 36.9735848,68.5967059 36.821838,68.5967059"/>
    <g transform="translate(0 .413)">
      <mask id="b" fill="white">
        <use xlink:href="#a"/>
      </mask>
      <path fill="#FF0000" d="M5.93592405,10.1451294 C5.74858228,14.3446588 5.62118987,22.9526588 5.62118987,25.5013647 C5.62118987,47.7921882 14.9695443,62.0924235 36.822962,73.0872471 C58.6745063,62.0924235 68.0247342,47.7921882 68.0247342,25.5013647 C68.0247342,22.9526588 67.8954684,14.3446588 67.7081266,10.1451294 C47.3028608,4.84818824 26.3468101,4.84818824 5.93592405,10.1451294 M36.822962,79.0580706 C36.4033165,79.0580706 35.9836709,78.9639529 35.5958734,78.7757176 C19.0236203,70.6985412 0.000936708861,57.3470118 0.000936708861,25.5013647 C0.000936708861,23.3272471 0.162050633,10.5761882 0.465544304,7.64724706 C0.585443038,6.49148235 1.39850633,5.52583529 2.51506329,5.21712941 C25.1328354,-1.03416471 48.5112152,-1.03416471 71.1289873,5.21712941 C72.2455443,5.52583529 73.060481,6.49148235 73.1785063,7.64724706 C73.482,10.5761882 73.6449873,23.3272471 73.6449873,25.5013647 C73.6449873,57.3451294 54.6223038,70.6985412 38.0500506,78.7757176 C37.6622532,78.9639529 37.2426076,79.0580706 36.822962,79.0580706" mask="url(#b)"/>
    </g>
    <path fill="#FF0000" d="M36.8225873,68.6307765 C36.3055241,68.6307765 35.8858785,68.2091294 35.8858785,67.6896 L35.8858785,11.7310118 C35.8858785,11.2114824 36.3055241,10.7898353 36.8225873,10.7898353 C37.3396506,10.7898353 37.7592962,11.2114824 37.7592962,11.7310118 L37.7592962,67.6896 C37.7592962,68.2091294 37.3396506,68.6307765 36.8225873,68.6307765"/>
  </g>
</svg>
