<svg xmlns="http://www.w3.org/2000/svg" width="77" height="80" viewBox="0 0 77 80">
  <g fill="#FF0000" fill-rule="evenodd">
    <path d="M1.86046512 77.7527442L14.7627907 77.7527442 14.7627907 51.283907 1.86046512 51.283907 1.86046512 77.7527442zM15.6930233 79.6132093L.930232558 79.6132093C.416744186 79.6132093 0 79.1964651 0 78.6829767L0 50.3536744C0 49.840186.416744186 49.4234419.930232558 49.4234419L15.6930233 49.4234419C16.2065116 49.4234419 16.6232558 49.840186 16.6232558 50.3536744L16.6232558 78.6829767C16.6232558 79.1964651 16.2065116 79.6132093 15.6930233 79.6132093zM32.0372093 75.8922791L43.0809302 75.8922791 43.0809302 32.911814 32.0372093 32.911814 32.0372093 75.8922791zM44.9395349 79.6132093L30.1767442 79.6132093C29.147907 79.6132093 28.3162791 78.7815814 28.3162791 77.7527442L28.3162791 31.0513488C28.3162791 30.0243721 29.147907 29.1908837 30.1767442 29.1908837L44.9395349 29.1908837C45.9683721 29.1908837 46.8 30.0243721 46.8 31.0513488L46.8 77.7527442C46.8 78.7815814 45.9683721 79.6132093 44.9395349 79.6132093zM62.2139535 74.031814L71.3953488 74.031814 71.3953488 5.5815814 62.2139535 5.5815814 62.2139535 74.031814zM74.1860465 79.6132093L59.4232558 79.6132093C57.8827907 79.6132093 56.6325581 78.3629767 56.6325581 76.8225116L56.6325581 2.79088372C56.6325581 1.2504186 57.8827907.000186046512 59.4232558.000186046512L74.1860465.000186046512C75.7265116.000186046512 76.9767442 1.2504186 76.9767442 2.79088372L76.9767442 76.8225116C76.9767442 78.3629767 75.7265116 79.6132093 74.1860465 79.6132093z"/>
  </g>
</svg>
