<svg xmlns="http://www.w3.org/2000/svg" width="15" height="15" viewBox="0 0 15 15">
  <path fill="#000000" fill-rule="evenodd" d="M6.32137015,11.3846576 C3.52651937,11.3846576 1.2551363,9.11323625 1.2551363,6.32137015 C1.2551363,3.52950405 3.52651937,1.2551363 6.32137015,1.2551363 C9.11323625,1.2551363 11.3877953,3.52950405 11.3877953,6.32137015 C11.3877953,9.11323625 9.11323625,11.3846576 6.32137015,11.3846576 M14.816241,13.9346494 L11.2102066,10.328615 C12.104043,9.23878432 12.6427403,7.8428704 12.6427403,6.32137015 C12.6427403,2.83162362 9.81111667,0 6.32137015,0 C2.82863894,0 0,2.83162362 0,6.32137015 C0,9.81111667 2.82863894,12.6427403 6.32137015,12.6427403 C7.8428704,12.6427403 9.23564657,12.1070277 10.3254773,11.2131913 L13.9315117,14.816241 C14.1764854,15.061253 14.5714204,15.061253 14.816241,14.816241 C15.061253,14.5744051 15.061253,14.1764854 14.816241,13.9346494"/>
</svg>
