<svg xmlns="http://www.w3.org/2000/svg" viewBox="0 0 63.08 64.75"><defs><style>.cls-1{fill:red;}</style></defs><title>щит</title><g id="Слой_2" data-name="Слой 2"><g id="Слой_1-2" data-name="Слой 1"><path class="cls-1" d="M63.08,7.43C49.31-1,34.18-2.23,19.14,3.54a71.1,71.1,0,0,0-9,4.23A92.68,92.68,0,0,0,1,13.6H1l0,0-.12.09,0,.14q-3.77,25.24,9.73,40.37a45,45,0,0,0,5.9,5.5,54.69,54.69,0,0,0,7,4.61h0l.21.12h0l.4.23h0l.13.07.17-.1Q43.08,53.25,52.75,39A58.64,58.64,0,0,0,63.06,7.82h0C63.07,7.69,63.07,7.56,63.08,7.43Z"/></g></g></svg>