<svg xmlns="http://www.w3.org/2000/svg" viewBox="0 0 63.08 88.91"><defs><style>.cls-1,.cls-3{fill:red;}.cls-2{fill:#e20000;}.cls-3{fill:#fff;}</style></defs><title>щит_2</title><g id="Слой_2" data-name="Слой 2"><g id="Слой_1-2" data-name="Слой 1"><path class="cls-1" d="M63.08,22.07c-13.78-8.38-28.9-9.66-43.94-3.9a71.1,71.1,0,0,0-9,4.23A92.68,92.68,0,0,0,1,28.23H1l0,0-.12.09,0,.14q-3.77,25.24,9.73,40.37a45,45,0,0,0,5.9,5.5,54.69,54.69,0,0,0,7,4.61h0l.21.12h0l.4.23h0l.13.07.17-.1q18.7-11.4,28.38-25.64A58.64,58.64,0,0,0,63.06,22.46h0C63.07,22.32,63.07,22.2,63.08,22.07Z"/><path class="cls-2" d="M44.76,15.21A48.3,48.3,0,0,0,23.6,16.69a114.4,114.4,0,0,0-4.72,15.53,78.68,78.68,0,0,0-1.95,19.56h0c.2.06,0,.64.32.87s1.3.94,2,.67l.66-.29h0c.68-.29,1.43-.61,1.83-.84h0A9.15,9.15,0,0,0,23.39,51l0,0a139.61,139.61,0,0,0-.67,18.39,83.48,83.48,0,0,0,.91,9.75h0l.4.23h0l.13.07.17-.1q3.15-1.92,6-3.93,3.38-21.86,9.89-35.83h0a67.06,67.06,0,0,1,3.27-6.19,51.76,51.76,0,0,1,3.62-5.28h0a1,1,0,0,0,.12-.63,4.36,4.36,0,0,0-.79-1.58A1.5,1.5,0,0,0,45,25.33c-2.7.6-5.56,2.55-8.12,4.38a33.67,33.67,0,0,1,5.67-11.61C43.22,17.14,44,16.18,44.76,15.21Z"/><path class="cls-2" d="M16.59,51.82h0m0,0h0Zm0,0h0Zm8.87,36.42a149.11,149.11,0,0,1-3.33-18.36,137.3,137.3,0,0,1-.66-19.14,10,10,0,0,1-1.37.94h0c-.3.17-.61.34-1,.51h0L18,52.7a1,1,0,0,1-1.44-.87s0,0,0,0h0v-.05h0q-.13-3-.11-6T16.65,40a86.91,86.91,0,0,1,5.53-26.7,2.33,2.33,0,0,1,.38-.48A67.26,67.26,0,0,1,35.29,6.49Q43.35,3.31,54.92,0a1.06,1.06,0,0,1,.94,1.78A85,85,0,0,0,41.47,16.74a34.79,34.79,0,0,0-5.6,11.17,20.65,20.65,0,0,1,3.65-1.44,45.47,45.47,0,0,1,5.75-1.19,1,1,0,0,1,1,1.64h0a52.5,52.5,0,0,0-3.67,5.37,68.34,68.34,0,0,0-3.33,6.29h0Q31.09,56,27.75,85.6l-.14,1.25c-.05.48-.1.9-.13,1.26a1.06,1.06,0,0,1-2,.13"/><path class="cls-3" d="M26.46,88a130.87,130.87,0,0,1-3.87-40,9.39,9.39,0,0,1-3,2.76,21,21,0,0,1-2,1q-.92-21.54,5.53-38.11Q32.17,7.55,55.19,1,36.5,16.76,34.38,30c3.42-2.45,7.38-3.14,11.05-3.73q-14,17.89-18.7,59.2Q26.59,86.74,26.46,88Z"/></g></g></svg>