<svg xmlns="http://www.w3.org/2000/svg" width="20" height="25" viewBox="0 0 20 25" xmlns:xlink="http://www.w3.org/1999/xlink">
  <defs>
    <polygon id="a" points="0 0 20 0 20 25 0 25"/>
  </defs>
  <g fill="none" fill-rule="evenodd">
    <mask id="b" fill="white">
      <use xlink:href="#a"/>
    </mask>
    <path fill="#231F20" d="M16.2491816,23.6197597 L3.75049901,23.6197597 C2.4525982,23.6197597 1.4001616,22.7608001 1.37978609,21.7025818 L2.74903312,6.24763548 L5.05868338,6.24763548 L5.05868338,8.34355828 C5.05868338,8.72699387 5.365338,9.03367843 5.74857643,9.03367843 C6.13181486,9.03367843 6.4384056,8.72699387 6.4384056,8.34355828 L6.4384056,6.24763548 L13.5562929,6.24763548 L13.5562929,8.34355828 C13.5562929,8.72699387 13.8629476,9.03367843 14.246186,9.03367843 C14.6294244,9.03367843 14.9360152,8.72699387 14.9360152,8.34355828 L14.9360152,6.24763548 L17.2457293,6.24763548 L18.6202139,21.7025818 C18.5997745,22.7608001 17.5421003,23.6197597 16.2491816,23.6197597 M9.99990419,1.38049591 C11.9364718,1.38049591 13.5156058,2.93468814 13.5562929,4.86189928 L6.4433877,4.86189928 C6.48439421,2.93468814 8.06314492,1.38049591 9.99990419,1.38049591 M19.9947624,21.6104934 L18.5640695,5.49092536 C18.5334104,5.13292434 18.2319934,4.86189928 17.879414,4.86189928 L14.9360152,4.86189928 C14.8951364,2.17280164 12.6979666,0 9.99990419,0 C7.30190565,0 5.10479974,2.17280164 5.0638571,4.86189928 L2.1205221,4.86189928 C1.76302452,4.86189928 1.46658959,5.13292434 1.43586665,5.49092536 L0.00498209957,21.6104934 C0.00498209957,21.6309433 0,21.6513931 0,21.671907 C0,23.5071575 1.68107537,25 3.75049901,25 L16.2491816,25 C18.3187969,25 20,23.5071575 20,21.671907 C20,21.6513931 20,21.6309433 19.9947624,21.6104934" mask="url(#b)"/>
  </g>
</svg>
