<svg xmlns="http://www.w3.org/2000/svg" width="31" height="30" viewBox="0 0 31 30">
  <path fill="none" stroke="#C8C8C8" d="M28.9746667,10.6564987 C28.9134142,10.4660914 28.7504204,10.3272308 28.554724,10.2983015 L19.1649304,8.9154814 L14.9655037,0.293500803 C14.8782968,0.113613214 14.697654,0 14.5004003,0 C14.3031467,0 14.1219847,0.113613214 14.0352969,0.293500803 L9.83483205,8.91600738 L0.445038489,10.2988275 C0.249342089,10.3277568 0.0873864479,10.4660914 0.0250958167,10.6570247 C-0.0351184601,10.846906 0.0147140448,11.0562489 0.156425231,11.1956355 L6.95233309,17.9072309 L5.34731116,27.3844665 C5.31408949,27.5817117 5.39454822,27.7810608 5.55390842,27.8988819 C5.71378771,28.017755 5.92661403,28.0330086 6.10050871,27.938331 L14.5004003,23.4648107 L22.8992538,27.938331 C22.9745216,27.979358 23.058614,27.9993455 23.141149,27.9993455 C23.2486004,27.9993455 23.3555326,27.9656823 23.4463731,27.8988819 C23.6057333,27.7810608 23.6861921,27.5817117 23.6524513,27.3844665 L22.0479485,17.9077569 L28.8438563,11.1956355 C28.9850484,11.0551969 29.0354,10.8463801 28.9746667,10.6564987" transform="translate(1 1)"/>
</svg>
