<svg xmlns="http://www.w3.org/2000/svg" width="31" height="30" viewBox="0 0 31 30">
  <path fill="#FF0000" fill-rule="evenodd" stroke="#E10000" d="M83.9746667,10.6564987 C83.9134142,10.4660914 83.7504204,10.3272308 83.554724,10.2983015 L74.1649304,8.9154814 L69.9655037,0.293500803 C69.8782968,0.113613214 69.697654,0 69.5004003,0 C69.3031467,0 69.1219847,0.113613214 69.0352969,0.293500803 L64.8348321,8.91600738 L55.4450385,10.2988275 C55.2493421,10.3277568 55.0873864,10.4660914 55.0250958,10.6570247 C54.9648815,10.846906 55.014714,11.0562489 55.1564252,11.1956355 L61.9523331,17.9072309 L60.3473112,27.3844665 C60.3140895,27.5817117 60.3945482,27.7810608 60.5539084,27.8988819 C60.7137877,28.017755 60.926614,28.0330086 61.1005087,27.938331 L69.5004003,23.4648107 L77.8992538,27.938331 C77.9745216,27.979358 78.058614,27.9993455 78.141149,27.9993455 C78.2486004,27.9993455 78.3555326,27.9656823 78.4463731,27.8988819 C78.6057333,27.7810608 78.6861921,27.5817117 78.6524513,27.3844665 L77.0479485,17.9077569 L83.8438563,11.1956355 C83.9850484,11.0551969 84.0354,10.8463801 83.9746667,10.6564987" transform="translate(-54 1)"/>
</svg>
