<svg xmlns="http://www.w3.org/2000/svg" width="31" height="30" viewBox="0 0 31 30">
  <path fill="none" stroke="#FF0000" d="M138.974667,10.6564987 C138.913414,10.4660914 138.75042,10.3272308 138.554724,10.2983015 L129.16493,8.9154814 L124.965504,0.293500803 C124.878297,0.113613214 124.697654,0 124.5004,0 C124.303147,0 124.121985,0.113613214 124.035297,0.293500803 L119.834832,8.91600738 L110.445038,10.2988275 C110.249342,10.3277568 110.087386,10.4660914 110.025096,10.6570247 C109.964882,10.846906 110.014714,11.0562489 110.156425,11.1956355 L116.952333,17.9072309 L115.347311,27.3844665 C115.314089,27.5817117 115.394548,27.7810608 115.553908,27.8988819 C115.713788,28.017755 115.926614,28.0330086 116.100509,27.938331 L124.5004,23.4648107 L132.899254,27.938331 C132.974522,27.979358 133.058614,27.9993455 133.141149,27.9993455 C133.2486,27.9993455 133.355533,27.9656823 133.446373,27.8988819 C133.605733,27.7810608 133.686192,27.5817117 133.652451,27.3844665 L132.047948,17.9077569 L138.843856,11.1956355 C138.985048,11.0551969 139.0354,10.8463801 138.974667,10.6564987" transform="translate(-109 1)"/>
</svg>
