<svg xmlns="http://www.w3.org/2000/svg" width="30" height="30" viewBox="0 0 30 30" xmlns:xlink="http://www.w3.org/1999/xlink">
  <defs>
    <polygon id="a" points="0 0 30 0 30 30 0 30"/>
  </defs>
  <g fill="none" fill-rule="evenodd">
    <mask id="b" fill="white">
      <use xlink:href="#a"/>
    </mask>
    <path fill="#27BCEE" d="M30,15.00012 C30,23.28432 23.2842,30.00012 15,30.00012 C6.7158,30.00012 0,23.28432 0,15.00012 C0,6.71532 6.7158,0.00012 15,0.00012 C23.2842,0.00012 30,6.71532 30,15.00012" mask="url(#b)"/>
    <path fill="#FFFFFF" d="M21.67122,8.49942 L19.00842,21.92562 C19.00842,21.92562 18.63582,22.85682 17.61162,22.41042 L11.46642,17.69862 L9.23142,16.61862 L5.47002,15.35202 C5.47002,15.35202 4.89282,15.14742 4.83702,14.70042 C4.78062,14.25342 5.48862,14.01162 5.48862,14.01162 L20.44242,8.14542 C20.44242,8.14542 21.67122,7.60542 21.67122,8.49942"/>
    <path fill="#D2E5F1" d="M10.9938,21.77532 C10.9938,21.77532 10.8144,21.75852 10.5912,21.05052 C10.3674,20.34312 9.2316,16.61892 9.2316,16.61892 L18.2634,10.88292 C18.2634,10.88292 18.7848,10.56612 18.7662,10.88292 C18.7662,10.88292 18.8592,10.93872 18.5802,11.19972 C18.3006,11.46012 11.4846,17.58732 11.4846,17.58732"/>
    <path fill="#B5CFE4" d="M13.82244,19.5051 L11.39184,21.7215 C11.39184,21.7215 11.20164,21.8655 10.99404,21.7755 L11.45964,17.6583"/>
  </g>
</svg>
