<svg xmlns="http://www.w3.org/2000/svg" width="77" height="79" viewBox="0 0 77 79" xmlns:xlink="http://www.w3.org/1999/xlink">
  <defs>
    <polygon id="a" points="0 .792 76.615 .792 76.615 78.095 0 78.095"/>
  </defs>
  <g fill="none" fill-rule="evenodd">
    <path fill="#FF0000" d="M30.2184762,12.7862857 C27.7460952,13.0129524 25.2489524,13.3481905 22.7975238,13.7805714 C22.2794286,13.872 21.9327619,14.3672381 22.0260952,14.8853333 C22.1060952,15.3462857 22.508,15.672 22.9613333,15.672 C23.0165714,15.672 23.0737143,15.6681905 23.1289524,15.6567619 C25.5270476,15.232 27.9708571,14.904381 30.3937143,14.6834286 C30.9175238,14.6358095 31.3022857,14.1729524 31.2546667,13.6472381 C31.2070476,13.1272381 30.7613333,12.759619 30.2184762,12.7862857"/>
    <g transform="translate(0 .113)">
      <mask id="b" fill="white">
        <use xlink:href="#a"/>
      </mask>
      <path fill="#FF0000" d="M62.1521905,36.2518095 C62.0188571,36.2518095 61.8893333,36.2251429 61.7579048,36.2194286 C63.7617143,31.560381 64.9864762,26.0041905 65.0017143,19.2708571 C68.4226667,20.4594286 70.9007619,23.680381 70.9007619,27.5013333 C70.9007619,32.3260952 66.9769524,36.2518095 62.1521905,36.2518095 Z M38.228381,51.4708571 C23.483619,43.9699048 17.1674286,34.2346667 17.1674286,19.1489524 C17.1674286,18.6213333 17.1750476,17.7375238 17.1902857,16.7070476 C17.2664762,16.4499048 17.3198095,16.1813333 17.3198095,15.895619 C17.3198095,15.640381 17.276,15.3965714 17.2131429,15.160381 C17.2474286,13.0975238 17.2988571,10.760381 17.3617143,9.09371429 C31.1579048,5.63466667 45.3007619,5.63466667 59.0969524,9.09371429 C59.156,10.6860952 59.2074286,12.8918095 59.2417143,14.8841905 C52.2893333,13.208 45.2398095,12.3089524 38.228381,12.3089524 C37.7026667,12.3089524 37.276,12.7337143 37.276,13.2613333 C37.276,13.7870476 37.7026667,14.2137143 38.228381,14.2137143 C45.2493333,14.2137143 52.3121905,15.1299048 59.2702857,16.8499048 C59.283619,17.8175238 59.2912381,18.6460952 59.2912381,19.1489524 C59.2912381,34.2346667 52.9750476,43.9699048 38.228381,51.4708571 Z M42.043619,60.200381 L34.4150476,60.200381 L34.4150476,55.9299048 C35.276,56.3832381 36.1331429,56.8213333 36.9826667,57.2327619 C37.3769524,57.4232381 37.8017143,57.5184762 38.228381,57.5184762 C38.6569524,57.5184762 39.0817143,57.4232381 39.476,57.2327619 C40.3255238,56.8213333 41.1826667,56.3832381 42.043619,55.9299048 L42.043619,60.200381 Z M14.4626667,36.2518095 C9.63980952,36.2518095 5.71409524,32.3260952 5.71409524,27.5013333 C5.71409524,23.7394286 8.116,20.5508571 11.4588571,19.3184762 C11.4798095,26.0365714 12.7045714,31.5813333 14.7064762,36.2308571 C14.6245714,36.2327619 14.5445714,36.2518095 14.4626667,36.2518095 Z M27.9655238,72.3813333 L48.4950476,72.3813333 L48.4950476,66.3432381 L27.9655238,66.3432381 L27.9655238,72.3813333 Z M64.9255238,13.3127619 C64.8702857,10.5394286 64.7864762,7.63466667 64.6740952,6.56228571 C64.5521905,5.3927619 63.7255238,4.41561905 62.5902857,4.1032381 C46.5369524,-0.312 29.9217143,-0.312 13.868381,4.1032381 C12.7331429,4.41561905 11.9064762,5.3927619 11.7845714,6.56228571 C11.6721905,7.63847619 11.588381,10.5584762 11.5312381,13.3394286 C4.95790476,14.6975238 -0.00019047619,20.5318095 -0.00019047619,27.5013333 C-0.00019047619,35.4784762 6.48742857,41.9660952 14.4626667,41.9660952 C15.523619,41.9660952 16.5617143,41.8099048 17.5864762,41.5832381 C20.643619,46.2213333 24.5579048,49.7413333 28.7007619,52.5299048 L28.7007619,60.6289524 L25.1064762,60.6289524 C23.5293333,60.6289524 22.2493333,61.9089524 22.2493333,63.4860952 L22.2493333,75.2384762 C22.2493333,76.815619 23.5293333,78.095619 25.1064762,78.095619 L51.3521905,78.095619 C52.9293333,78.095619 54.2093333,76.815619 54.2093333,75.2384762 L54.2093333,63.4860952 C54.2093333,61.9089524 52.9293333,60.6289524 51.3521905,60.6289524 L47.7579048,60.6289524 L47.7579048,52.5299048 C51.9121905,49.7337143 55.8340952,46.2041905 58.8950476,41.5489524 C59.9617143,41.7946667 61.0455238,41.9660952 62.1521905,41.9660952 C70.1274286,41.9660952 76.6150476,35.4784762 76.6150476,27.5013333 C76.6150476,20.4765714 71.5769524,14.6118095 64.9255238,13.3127619 Z" mask="url(#b)"/>
    </g>
  </g>
</svg>
